Decovar-Regular24SkelD4.ufo
<glyph name="A" format="1">
  <advance width="1274"/>
  <unicode hex="0041"/>
  <outline>
    <contour>
      <point x="632" y="244" type="qcurve" smooth="yes"/>
      <point x="631" y="244"/>
      <point x="631" y="244"/>
      <point x="631" y="278" type="qcurve"/>
      <point x="631" y="312"/>
      <point x="631" y="312"/>
      <point x="632" y="312" type="qcurve"/>
      <point x="633" y="312"/>
      <point x="633" y="312"/>
      <point x="634" y="312" type="qcurve"/>
      <point x="635" y="312"/>
      <point x="635" y="312"/>
      <point x="636" y="312" type="qcurve" smooth="yes"/>
      <point x="637" y="312"/>
      <point x="637" y="312"/>
      <point x="637" y="278" type="qcurve"/>
      <point x="637" y="244"/>
      <point x="637" y="244"/>
      <point x="636" y="244" type="qcurve" smooth="yes"/>
      <point x="635" y="244"/>
      <point x="635" y="244"/>
      <point x="634" y="244" type="qcurve"/>
      <point x="633" y="244"/>
      <point x="633" y="244"/>
    </contour>
    <contour>
      <point x="632" y="312" type="qcurve"/>
      <point x="631" y="312"/>
      <point x="631" y="312"/>
      <point x="631" y="346" type="qcurve"/>
      <point x="631" y="380"/>
      <point x="631" y="380"/>
      <point x="632" y="380" type="qcurve" smooth="yes"/>
      <point x="633" y="380"/>
      <point x="633" y="380"/>
      <point x="634" y="380" type="qcurve"/>
      <point x="635" y="380"/>
      <point x="635" y="380"/>
      <point x="636" y="380" type="qcurve" smooth="yes"/>
      <point x="637" y="380"/>
      <point x="637" y="380"/>
      <point x="637" y="346" type="qcurve"/>
      <point x="637" y="312"/>
      <point x="637" y="312"/>
      <point x="636" y="312" type="qcurve" smooth="yes"/>
      <point x="635" y="312"/>
      <point x="635" y="312"/>
      <point x="634" y="312" type="qcurve"/>
      <point x="633" y="312"/>
      <point x="633" y="312"/>
    </contour>
    <contour>
      <point x="430" y="932" type="qcurve"/>
      <point x="398" y="945"/>
      <point x="398" y="945"/>
      <point x="399" y="946" type="qcurve"/>
      <point x="399" y="946"/>
      <point x="399" y="948"/>
      <point x="399" y="948" type="qcurve"/>
      <point x="400" y="949"/>
      <point x="400" y="949"/>
      <point x="432" y="936" type="qcurve"/>
      <point x="468" y="921"/>
      <point x="468" y="921"/>
      <point x="467" y="920" type="qcurve"/>
      <point x="467" y="920"/>
      <point x="467" y="918"/>
      <point x="467" y="918" type="qcurve"/>
      <point x="466" y="917"/>
      <point x="466" y="917"/>
    </contour>
    <contour>
      <point x="502" y="902" type="qcurve"/>
      <point x="466" y="917"/>
      <point x="466" y="917"/>
      <point x="467" y="918" type="qcurve"/>
      <point x="467" y="918"/>
      <point x="467" y="920"/>
      <point x="467" y="920" type="qcurve"/>
      <point x="468" y="921"/>
      <point x="468" y="921"/>
      <point x="504" y="906" type="qcurve"/>
      <point x="537" y="892"/>
      <point x="537" y="892"/>
      <point x="536" y="891" type="qcurve"/>
      <point x="536" y="891"/>
      <point x="536" y="889"/>
      <point x="536" y="889" type="qcurve"/>
      <point x="535" y="888"/>
      <point x="535" y="888"/>
    </contour>
    <contour>
      <point x="844" y="932" type="qcurve"/>
      <point x="808" y="917"/>
      <point x="808" y="917"/>
      <point x="807" y="918" type="qcurve"/>
      <point x="807" y="918"/>
      <point x="807" y="920"/>
      <point x="807" y="920" type="qcurve"/>
      <point x="806" y="921"/>
      <point x="806" y="921"/>
      <point x="842" y="936" type="qcurve"/>
      <point x="877" y="950"/>
      <point x="877" y="950"/>
      <point x="878" y="949" type="qcurve"/>
      <point x="878" y="949"/>
      <point x="878" y="947"/>
      <point x="878" y="947" type="qcurve"/>
      <point x="879" y="946"/>
      <point x="879" y="946"/>
    </contour>
    <contour>
      <point x="772" y="902" type="qcurve"/>
      <point x="739" y="888"/>
      <point x="739" y="888"/>
      <point x="738" y="889" type="qcurve"/>
      <point x="738" y="889"/>
      <point x="738" y="891"/>
      <point x="738" y="891" type="qcurve"/>
      <point x="737" y="892"/>
      <point x="737" y="892"/>
      <point x="770" y="905" type="qcurve"/>
      <point x="806" y="921"/>
      <point x="806" y="921"/>
      <point x="807" y="920" type="qcurve"/>
      <point x="807" y="920"/>
      <point x="807" y="918"/>
      <point x="807" y="918" type="qcurve"/>
      <point x="808" y="917"/>
      <point x="808" y="917"/>
    </contour>
    <component base="TopCrown" xOffset="465"/>
    <component base="CWTermMidWaist" xScale="-0.9144513511998228" xyScale="0.4046958441704308" yxScale="-0.4046958441704308" yScale="-0.9144513511998228" xOffset="850" yOffset="1164"/>
    <component base="CCWTermMidWaist" xScale="-0.916508931755964" xyScale="-0.400014222261586" yxScale="0.400014222261586" yScale="-0.916508931755964" xOffset="890" yOffset="1366"/>
  </outline>
</glyph>
<glyph name="B" format="1">
  <advance width="960"/>
  <unicode hex="0042"/>
  <outline>
    <contour>
      <point x="205" y="423" type="qcurve"/>
      <point x="164" y="423"/>
      <point x="164" y="423"/>
      <point x="164" y="423" type="qcurve"/>
      <point x="164" y="424"/>
      <point x="164" y="424"/>
      <point x="164" y="424" type="qcurve"/>
      <point x="164" y="424"/>
      <point x="164" y="424"/>
      <point x="164" y="425" type="qcurve"/>
      <point x="164" y="425"/>
      <point x="164" y="425"/>
      <point x="205" y="425" type="qcurve"/>
      <point x="246" y="425"/>
      <point x="246" y="425"/>
      <point x="246" y="425" type="qcurve"/>
      <point x="246" y="424"/>
      <point x="246" y="424"/>
      <point x="246" y="424" type="qcurve"/>
      <point x="246" y="424"/>
      <point x="246" y="424"/>
      <point x="246" y="423" type="qcurve"/>
      <point x="246" y="423"/>
      <point x="246" y="423"/>
    </contour>
    <contour>
      <point x="205" y="1026" type="qcurve"/>
      <point x="164" y="1026"/>
      <point x="164" y="1026"/>
      <point x="164" y="1026" type="qcurve"/>
      <point x="164" y="1027"/>
      <point x="164" y="1027"/>
      <point x="164" y="1027" type="qcurve"/>
      <point x="164" y="1028"/>
      <point x="164" y="1027"/>
      <point x="164" y="1028" type="qcurve"/>
      <point x="164" y="1028"/>
      <point x="164" y="1028"/>
      <point x="205" y="1028" type="qcurve"/>
      <point x="246" y="1028"/>
      <point x="246" y="1028"/>
      <point x="246" y="1028" type="qcurve"/>
      <point x="246" y="1027"/>
      <point x="246" y="1028"/>
      <point x="246" y="1027" type="qcurve"/>
      <point x="246" y="1027"/>
      <point x="246" y="1027"/>
      <point x="246" y="1026" type="qcurve"/>
      <point x="246" y="1026"/>
      <point x="246" y="1026"/>
    </contour>
    <contour>
      <point x="287" y="423" type="qcurve"/>
      <point x="246" y="423"/>
      <point x="246" y="423"/>
      <point x="246" y="423" type="qcurve"/>
      <point x="246" y="424"/>
      <point x="246" y="424"/>
      <point x="246" y="424" type="qcurve"/>
      <point x="246" y="424"/>
      <point x="246" y="424"/>
      <point x="246" y="425" type="qcurve"/>
      <point x="246" y="425"/>
      <point x="246" y="425"/>
      <point x="287" y="425" type="qcurve"/>
      <point x="328" y="425"/>
      <point x="328" y="425"/>
      <point x="328" y="425" type="qcurve"/>
      <point x="328" y="424"/>
      <point x="328" y="424"/>
      <point x="328" y="424" type="qcurve"/>
      <point x="328" y="424"/>
      <point x="328" y="424"/>
      <point x="328" y="423" type="qcurve"/>
      <point x="328" y="423"/>
      <point x="328" y="423"/>
    </contour>
    <contour>
      <point x="287" y="1026" type="qcurve"/>
      <point x="246" y="1026"/>
      <point x="246" y="1026"/>
      <point x="246" y="1026" type="qcurve"/>
      <point x="246" y="1027"/>
      <point x="246" y="1027"/>
      <point x="246" y="1027" type="qcurve"/>
      <point x="246" y="1028"/>
      <point x="246" y="1027"/>
      <point x="246" y="1028" type="qcurve"/>
      <point x="246" y="1028"/>
      <point x="246" y="1028"/>
      <point x="287" y="1028" type="qcurve"/>
      <point x="328" y="1028"/>
      <point x="328" y="1028"/>
      <point x="328" y="1028" type="qcurve"/>
      <point x="328" y="1027"/>
      <point x="328" y="1028"/>
      <point x="328" y="1027" type="qcurve"/>
      <point x="328" y="1027"/>
      <point x="328" y="1027"/>
      <point x="328" y="1026" type="qcurve"/>
      <point x="328" y="1026"/>
      <point x="328" y="1026"/>
    </contour>
    <contour>
      <point x="582" y="1229" type="qcurve"/>
      <point x="567" y="1191"/>
      <point x="567" y="1191"/>
      <point x="566" y="1192" type="qcurve"/>
      <point x="565" y="1193"/>
      <point x="565" y="1193"/>
      <point x="564" y="1193" type="qcurve"/>
      <point x="563" y="1194"/>
      <point x="564" y="1193"/>
      <point x="563" y="1194" type="qcurve"/>
      <point x="561" y="1195"/>
      <point x="561" y="1195"/>
      <point x="576" y="1231" type="qcurve"/>
      <point x="590" y="1266"/>
      <point x="590" y="1266"/>
      <point x="591" y="1266" type="qcurve"/>
      <point x="593" y="1265"/>
      <point x="591" y="1266"/>
      <point x="593" y="1265" type="qcurve"/>
      <point x="594" y="1265"/>
      <point x="593" y="1265"/>
      <point x="594" y="1265" type="qcurve"/>
      <point x="596" y="1264"/>
      <point x="596" y="1264"/>
    </contour>
    <contour>
      <point x="687" y="131" type="qcurve"/>
      <point x="686" y="130"/>
      <point x="686" y="130"/>
      <point x="660" y="167" type="qcurve"/>
      <point x="639" y="201"/>
      <point x="639" y="201"/>
      <point x="640" y="202" type="qcurve"/>
      <point x="641" y="203"/>
      <point x="640" y="202"/>
      <point x="641" y="203" type="qcurve"/>
      <point x="642" y="203"/>
      <point x="641" y="203"/>
      <point x="642" y="203" type="qcurve"/>
      <point x="643" y="204"/>
      <point x="643" y="204"/>
      <point x="666" y="169" type="qcurve"/>
      <point x="690" y="133"/>
      <point x="690" y="133"/>
      <point x="689" y="132" type="qcurve"/>
      <point x="688" y="132"/>
      <point x="688" y="132"/>
      <point x="688" y="132" type="qcurve"/>
      <point x="688" y="132"/>
      <point x="688" y="132"/>
    </contour>
    <contour>
      <point x="609" y="1297" type="qcurve"/>
      <point x="596" y="1264"/>
      <point x="596" y="1264"/>
      <point x="594" y="1265" type="qcurve"/>
      <point x="593" y="1265"/>
      <point x="594" y="1265"/>
      <point x="593" y="1265" type="qcurve"/>
      <point x="591" y="1266"/>
      <point x="593" y="1265"/>
      <point x="591" y="1266" type="qcurve"/>
      <point x="590" y="1266"/>
      <point x="590" y="1266"/>
      <point x="604" y="1301" type="qcurve"/>
      <point x="617" y="1334"/>
      <point x="617" y="1334"/>
      <point x="619" y="1334" type="qcurve"/>
      <point x="620" y="1333"/>
      <point x="619" y="1334"/>
      <point x="620" y="1333" type="qcurve"/>
      <point x="621" y="1332"/>
      <point x="621" y="1332"/>
      <point x="623" y="1332" type="qcurve"/>
      <point x="624" y="1331"/>
      <point x="624" y="1331"/>
    </contour>
    <contour>
      <point x="738" y="63" type="qcurve"/>
      <point x="737" y="62"/>
      <point x="737" y="62"/>
      <point x="709" y="99" type="qcurve"/>
      <point x="686" y="130"/>
      <point x="686" y="130"/>
      <point x="687" y="131" type="qcurve"/>
      <point x="688" y="132"/>
      <point x="688" y="132"/>
      <point x="688" y="132" type="qcurve"/>
      <point x="688" y="132"/>
      <point x="688" y="132"/>
      <point x="689" y="132" type="qcurve"/>
      <point x="690" y="133"/>
      <point x="690" y="133"/>
      <point x="713" y="103" type="qcurve"/>
      <point x="741" y="66"/>
      <point x="741" y="66"/>
      <point x="740" y="65" type="qcurve"/>
      <point x="739" y="64"/>
      <point x="739" y="64"/>
      <point x="739" y="64" type="qcurve"/>
      <point x="739" y="64"/>
      <point x="739" y="64"/>
    </contour>
    <contour>
      <point x="393" y="697" type="qcurve" smooth="yes"/>
      <point x="392" y="697"/>
      <point x="392" y="697"/>
      <point x="392" y="735" type="qcurve" smooth="yes"/>
      <point x="392" y="773"/>
      <point x="392" y="773"/>
      <point x="393" y="773" type="qcurve" smooth="yes"/>
      <point x="394" y="773"/>
      <point x="396" y="773"/>
      <point x="397" y="773" type="qcurve" smooth="yes"/>
      <point x="398" y="773"/>
      <point x="398" y="773"/>
      <point x="398" y="735" type="qcurve"/>
      <point x="398" y="697"/>
      <point x="398" y="697"/>
      <point x="397" y="697" type="qcurve" smooth="yes"/>
      <point x="396" y="697"/>
      <point x="394" y="697"/>
    </contour>
    <contour>
      <point x="393" y="773" type="qcurve" smooth="yes"/>
      <point x="392" y="773"/>
      <point x="392" y="773"/>
      <point x="392" y="811" type="qcurve"/>
      <point x="392" y="849"/>
      <point x="392" y="849"/>
      <point x="393" y="849" type="qcurve"/>
      <point x="394" y="849"/>
      <point x="396" y="849"/>
      <point x="397" y="849" type="qcurve"/>
      <point x="398" y="849"/>
      <point x="398" y="849"/>
      <point x="398" y="811" type="qcurve"/>
      <point x="398" y="773"/>
      <point x="398" y="773"/>
      <point x="397" y="773" type="qcurve" smooth="yes"/>
      <point x="396" y="773"/>
      <point x="394" y="773"/>
    </contour>
    <contour>
      <point x="719" y="912" type="qcurve"/>
      <point x="718" y="911"/>
      <point x="718" y="911"/>
      <point x="681" y="921" type="qcurve"/>
      <point x="642" y="931"/>
      <point x="642" y="931"/>
      <point x="643" y="932" type="qcurve"/>
      <point x="643" y="934"/>
      <point x="643" y="934"/>
      <point x="644" y="935" type="qcurve"/>
      <point x="644" y="936"/>
      <point x="644" y="936"/>
      <point x="683" y="926" type="qcurve"/>
      <point x="720" y="916"/>
      <point x="720" y="916"/>
      <point x="720" y="915" type="qcurve"/>
      <point x="720" y="914"/>
      <point x="720" y="914"/>
    </contour>
    <contour>
      <point x="758" y="584" type="qcurve"/>
      <point x="722" y="562"/>
      <point x="722" y="562"/>
      <point x="721" y="563" type="qcurve"/>
      <point x="721" y="564"/>
      <point x="720" y="566"/>
      <point x="719" y="567" type="qcurve"/>
      <point x="719" y="568"/>
      <point x="719" y="568"/>
      <point x="754" y="589" type="qcurve"/>
      <point x="787" y="609"/>
      <point x="787" y="609"/>
      <point x="787" y="608" type="qcurve"/>
      <point x="788" y="607"/>
      <point x="788" y="607"/>
      <point x="789" y="606" type="qcurve"/>
      <point x="789" y="604"/>
      <point x="789" y="604"/>
    </contour>
    <contour>
      <point x="791" y="891" type="qcurve"/>
      <point x="791" y="890"/>
      <point x="791" y="890"/>
      <point x="756" y="900" type="qcurve"/>
      <point x="718" y="911"/>
      <point x="718" y="911"/>
      <point x="719" y="912" type="qcurve"/>
      <point x="719" y="912"/>
      <point x="720" y="915"/>
      <point x="720" y="915" type="qcurve"/>
      <point x="720" y="916"/>
      <point x="720" y="916"/>
      <point x="756" y="906" type="qcurve"/>
      <point x="793" y="895"/>
      <point x="793" y="895"/>
      <point x="792" y="894" type="qcurve"/>
      <point x="792" y="892"/>
      <point x="792" y="892"/>
    </contour>
    <contour>
      <point x="826" y="626" type="qcurve"/>
      <point x="789" y="604"/>
      <point x="789" y="604"/>
      <point x="789" y="606" type="qcurve"/>
      <point x="788" y="607"/>
      <point x="788" y="607"/>
      <point x="787" y="608" type="qcurve"/>
      <point x="787" y="609"/>
      <point x="787" y="609"/>
      <point x="823" y="631" type="qcurve"/>
      <point x="851" y="648"/>
      <point x="851" y="648"/>
      <point x="851" y="647" type="qcurve"/>
      <point x="852" y="646"/>
      <point x="853" y="645"/>
      <point x="853" y="643" type="qcurve"/>
      <point x="854" y="642"/>
      <point x="854" y="642"/>
    </contour>
    <contour>
      <point x="688" y="1024" type="qcurve"/>
      <point x="648" y="1024"/>
      <point x="648" y="1024"/>
      <point x="648" y="1029" type="qcurve"/>
      <point x="648" y="1034"/>
      <point x="648" y="1034"/>
      <point x="688" y="1034" type="qcurve" smooth="yes"/>
      <point x="729" y="1034"/>
      <point x="729" y="1034"/>
      <point x="729" y="1029" type="qcurve"/>
      <point x="729" y="1024"/>
      <point x="729" y="1024"/>
    </contour>
    <contour>
      <point x="688" y="1034" type="qcurve" smooth="yes"/>
      <point x="648" y="1034"/>
      <point x="648" y="1034"/>
      <point x="648" y="1039" type="qcurve"/>
      <point x="648" y="1044"/>
      <point x="648" y="1044"/>
      <point x="688" y="1044" type="qcurve" smooth="yes"/>
      <point x="729" y="1044"/>
      <point x="729" y="1044"/>
      <point x="729" y="1039" type="qcurve"/>
      <point x="729" y="1034"/>
      <point x="729" y="1034"/>
    </contour>
    <contour>
      <point x="790" y="417" type="qcurve"/>
      <point x="749" y="417"/>
      <point x="749" y="417"/>
      <point x="749" y="422" type="qcurve"/>
      <point x="749" y="427"/>
      <point x="749" y="427"/>
      <point x="790" y="427" type="qcurve" smooth="yes"/>
      <point x="830" y="427"/>
      <point x="830" y="427"/>
      <point x="830" y="422" type="qcurve"/>
      <point x="830" y="417"/>
      <point x="830" y="417"/>
    </contour>
    <contour>
      <point x="790" y="427" type="qcurve" smooth="yes"/>
      <point x="749" y="427"/>
      <point x="749" y="427"/>
      <point x="749" y="432" type="qcurve" smooth="yes"/>
      <point x="749" y="437"/>
      <point x="749" y="437"/>
      <point x="790" y="437" type="qcurve" smooth="yes"/>
      <point x="830" y="437"/>
      <point x="830" y="437"/>
      <point x="830" y="432" type="qcurve"/>
      <point x="830" y="427"/>
      <point x="830" y="427"/>
    </contour>
    <contour>
      <point x="768" y="1024" type="qcurve"/>
      <point x="729" y="1024"/>
      <point x="729" y="1024"/>
      <point x="729" y="1029" type="qcurve"/>
      <point x="729" y="1034"/>
      <point x="729" y="1034"/>
      <point x="768" y="1034" type="qcurve" smooth="yes"/>
      <point x="808" y="1034"/>
      <point x="808" y="1034"/>
      <point x="808" y="1029" type="qcurve"/>
      <point x="808" y="1024"/>
      <point x="808" y="1024"/>
    </contour>
    <contour>
      <point x="768" y="1034" type="qcurve" smooth="yes"/>
      <point x="729" y="1034"/>
      <point x="729" y="1034"/>
      <point x="729" y="1039" type="qcurve"/>
      <point x="729" y="1044"/>
      <point x="729" y="1044"/>
      <point x="768" y="1044" type="qcurve" smooth="yes"/>
      <point x="808" y="1044"/>
      <point x="808" y="1044"/>
      <point x="808" y="1039" type="qcurve"/>
      <point x="808" y="1034"/>
      <point x="808" y="1034"/>
    </contour>
    <contour>
      <point x="871" y="417" type="qcurve"/>
      <point x="830" y="417"/>
      <point x="830" y="417"/>
      <point x="830" y="422" type="qcurve"/>
      <point x="830" y="427"/>
      <point x="830" y="427"/>
      <point x="871" y="427" type="qcurve" smooth="yes"/>
      <point x="912" y="427"/>
      <point x="912" y="427"/>
      <point x="912" y="422" type="qcurve"/>
      <point x="912" y="417"/>
      <point x="912" y="417"/>
    </contour>
    <contour>
      <point x="871" y="427" type="qcurve" smooth="yes"/>
      <point x="830" y="427"/>
      <point x="830" y="427"/>
      <point x="830" y="432" type="qcurve"/>
      <point x="830" y="437"/>
      <point x="830" y="437"/>
      <point x="871" y="437" type="qcurve" smooth="yes"/>
      <point x="912" y="437"/>
      <point x="912" y="437"/>
      <point x="912" y="432" type="qcurve"/>
      <point x="912" y="427"/>
      <point x="912" y="427"/>
    </contour>
    <component base="WaistElement" xOffset="-82" yOffset="89"/>
    <component base="BaseElementV2" xOffset="-82"/>
    <component base="TopElementV2" xOffset="-82"/>
    <component base="RightCrown" xOffset="413"/>
  </outline>
</glyph>
<glyph name="C" format="1">
  <advance width="1148"/>
  <unicode hex="0043"/>
  <outline>
    <contour>
      <point x="922" y="-22" type="qcurve"/>
      <point x="921" y="-22"/>
      <point x="921" y="-22"/>
      <point x="921" y="9" type="qcurve"/>
      <point x="920" y="50"/>
      <point x="920" y="50"/>
      <point x="922" y="50" type="qcurve"/>
      <point x="923" y="50"/>
      <point x="924" y="50"/>
      <point x="925" y="50" type="qcurve"/>
      <point x="926" y="50"/>
      <point x="926" y="50"/>
      <point x="927" y="8" type="qcurve"/>
      <point x="927" y="-22"/>
      <point x="927" y="-22"/>
      <point x="925" y="-22" type="qcurve"/>
      <point x="924" y="-22"/>
      <point x="924" y="-22"/>
    </contour>
    <contour>
      <point x="922" y="50" type="qcurve"/>
      <point x="920" y="50"/>
      <point x="920" y="50"/>
      <point x="919" y="84" type="qcurve"/>
      <point x="919" y="122"/>
      <point x="919" y="122"/>
      <point x="921" y="122" type="qcurve"/>
      <point x="922" y="122"/>
      <point x="922" y="122"/>
      <point x="924" y="122" type="qcurve"/>
      <point x="925" y="122"/>
      <point x="925" y="122"/>
      <point x="925" y="85" type="qcurve"/>
      <point x="926" y="50"/>
      <point x="926" y="50"/>
      <point x="925" y="50" type="qcurve"/>
      <point x="924" y="50"/>
      <point x="923" y="50"/>
    </contour>
    <contour>
      <point x="928" y="1240" type="qcurve"/>
      <point x="925" y="1240"/>
      <point x="925" y="1240"/>
      <point x="923" y="1241" type="qcurve"/>
      <point x="922" y="1241"/>
      <point x="922" y="1241"/>
      <point x="922" y="1281" type="qcurve"/>
      <point x="922" y="1318"/>
      <point x="922" y="1318"/>
      <point x="924" y="1318" type="qcurve"/>
      <point x="925" y="1318"/>
      <point x="925" y="1318"/>
      <point x="927" y="1318" type="qcurve"/>
      <point x="929" y="1318"/>
      <point x="929" y="1318"/>
      <point x="929" y="1280" type="qcurve"/>
      <point x="929" y="1239"/>
      <point x="929" y="1239"/>
    </contour>
    <contour>
      <point x="927" y="1318" type="qcurve"/>
      <point x="925" y="1318"/>
      <point x="925" y="1318"/>
      <point x="924" y="1318" type="qcurve"/>
      <point x="922" y="1318"/>
      <point x="922" y="1318"/>
      <point x="922" y="1361" type="qcurve"/>
      <point x="922" y="1396"/>
      <point x="922" y="1396"/>
      <point x="924" y="1396" type="qcurve"/>
      <point x="926" y="1396"/>
      <point x="926" y="1396"/>
      <point x="928" y="1395" type="qcurve"/>
      <point x="929" y="1395"/>
      <point x="929" y="1395"/>
      <point x="929" y="1359" type="qcurve"/>
      <point x="929" y="1318"/>
      <point x="929" y="1318"/>
    </contour>
    <contour>
      <point x="772" y="-28" type="qcurve"/>
      <point x="738" y="-26"/>
      <point x="738" y="-26"/>
      <point x="738" y="14" type="qcurve"/>
      <point x="738" y="49"/>
      <point x="738" y="49"/>
      <point x="772" y="45" type="qcurve"/>
      <point x="807" y="45"/>
      <point x="807" y="45"/>
      <point x="807" y="10" type="qcurve"/>
      <point x="807" y="-29"/>
      <point x="807" y="-29"/>
    </contour>
    <contour>
      <point x="772" y="45" type="qcurve"/>
      <point x="738" y="49"/>
      <point x="738" y="49"/>
      <point x="738" y="83" type="qcurve" smooth="yes"/>
      <point x="738" y="123"/>
      <point x="738" y="123"/>
      <point x="774" y="119" type="qcurve"/>
      <point x="807" y="117"/>
      <point x="807" y="117"/>
      <point x="807" y="79" type="qcurve"/>
      <point x="807" y="45"/>
      <point x="807" y="45"/>
    </contour>
    <contour>
      <point x="770" y="1248" type="qcurve"/>
      <point x="738" y="1244"/>
      <point x="738" y="1244"/>
      <point x="738" y="1287" type="qcurve" smooth="yes"/>
      <point x="738" y="1322"/>
      <point x="738" y="1322"/>
      <point x="771" y="1325" type="qcurve"/>
      <point x="803" y="1326"/>
      <point x="803" y="1326"/>
      <point x="803" y="1289" type="qcurve"/>
      <point x="803" y="1249"/>
      <point x="803" y="1249"/>
    </contour>
    <contour>
      <point x="771" y="1325" type="qcurve"/>
      <point x="738" y="1322"/>
      <point x="738" y="1322"/>
      <point x="738" y="1360" type="qcurve"/>
      <point x="738" y="1401"/>
      <point x="738" y="1401"/>
      <point x="770" y="1403" type="qcurve"/>
      <point x="803" y="1403"/>
      <point x="803" y="1403"/>
      <point x="803" y="1362" type="qcurve"/>
      <point x="803" y="1326"/>
      <point x="803" y="1326"/>
    </contour>
    <contour>
      <point x="838" y="-29" type="qcurve"/>
      <point x="807" y="-29"/>
      <point x="807" y="-29"/>
      <point x="807" y="10" type="qcurve"/>
      <point x="807" y="45"/>
      <point x="807" y="45"/>
      <point x="836" y="45" type="qcurve"/>
      <point x="867" y="46"/>
      <point x="867" y="46"/>
      <point x="867" y="10" type="qcurve"/>
      <point x="867" y="-28"/>
      <point x="867" y="-28"/>
    </contour>
    <contour>
      <point x="836" y="45" type="qcurve"/>
      <point x="807" y="45"/>
      <point x="807" y="45"/>
      <point x="807" y="79" type="qcurve"/>
      <point x="807" y="117"/>
      <point x="807" y="117"/>
      <point x="837" y="117" type="qcurve"/>
      <point x="867" y="118"/>
      <point x="867" y="118"/>
      <point x="867" y="82" type="qcurve" smooth="yes"/>
      <point x="867" y="46"/>
      <point x="867" y="46"/>
    </contour>
    <contour>
      <point x="835" y="1248" type="qcurve"/>
      <point x="803" y="1249"/>
      <point x="803" y="1249"/>
      <point x="803" y="1289" type="qcurve"/>
      <point x="803" y="1326"/>
      <point x="803" y="1326"/>
      <point x="834" y="1325" type="qcurve"/>
      <point x="867" y="1324"/>
      <point x="867" y="1324"/>
      <point x="867" y="1286" type="qcurve" smooth="yes"/>
      <point x="867" y="1247"/>
      <point x="867" y="1247"/>
    </contour>
    <contour>
      <point x="834" y="1325" type="qcurve"/>
      <point x="803" y="1326"/>
      <point x="803" y="1326"/>
      <point x="803" y="1362" type="qcurve"/>
      <point x="803" y="1403"/>
      <point x="803" y="1403"/>
      <point x="836" y="1403" type="qcurve"/>
      <point x="867" y="1402"/>
      <point x="867" y="1402"/>
      <point x="867" y="1362" type="qcurve"/>
      <point x="867" y="1324"/>
      <point x="867" y="1324"/>
    </contour>
    <contour>
      <point x="1025" y="0" type="qcurve"/>
      <point x="984" y="-11"/>
      <point x="984" y="-11"/>
      <point x="984" y="27" type="qcurve"/>
      <point x="984" y="63"/>
      <point x="984" y="63"/>
      <point x="1026" y="75" type="qcurve"/>
      <point x="1066" y="89"/>
      <point x="1066" y="89"/>
      <point x="1066" y="51" type="qcurve"/>
      <point x="1066" y="12"/>
      <point x="1066" y="12"/>
    </contour>
    <contour>
      <point x="1026" y="75" type="qcurve"/>
      <point x="984" y="63"/>
      <point x="984" y="63"/>
      <point x="984" y="100" type="qcurve"/>
      <point x="984" y="136"/>
      <point x="984" y="136"/>
      <point x="1027" y="150" type="qcurve"/>
      <point x="1066" y="165"/>
      <point x="1066" y="165"/>
      <point x="1066" y="128" type="qcurve"/>
      <point x="1066" y="89"/>
      <point x="1066" y="89"/>
    </contour>
    <contour>
      <point x="1108" y="27" type="qcurve"/>
      <point x="1066" y="12"/>
      <point x="1066" y="12"/>
      <point x="1066" y="51" type="qcurve"/>
      <point x="1066" y="89"/>
      <point x="1066" y="89"/>
      <point x="1107" y="108" type="qcurve"/>
      <point x="1148" y="132"/>
      <point x="1148" y="132"/>
      <point x="1148" y="77" type="qcurve"/>
      <point x="1148" y="46"/>
      <point x="1148" y="46"/>
    </contour>
    <contour>
      <point x="1107" y="108" type="qcurve"/>
      <point x="1066" y="89"/>
      <point x="1066" y="89"/>
      <point x="1066" y="128" type="qcurve"/>
      <point x="1066" y="165"/>
      <point x="1066" y="165"/>
      <point x="1105" y="186" type="qcurve"/>
      <point x="1148" y="216"/>
      <point x="1148" y="216"/>
      <point x="1148" y="164" type="qcurve" smooth="yes"/>
      <point x="1148" y="132"/>
      <point x="1148" y="132"/>
    </contour>
    <component base="TopCurvedElement" xOffset="738" yOffset="-3"/>
    <component base="RoundWaistElement270" xOffset="82"/>
    <component base="RoundDualySW" xOffset="85"/>
    <component base="RoundDualyNW" xOffset="85"/>
  </outline>
</glyph>
<glyph name="F" format="1">
  <advance width="738.0"/>
  <unicode hex="0046"/>
  <outline>
    <contour>
      <point x="413" y="608" type="qcurve" smooth="yes"/>
      <point x="412" y="608"/>
      <point x="412" y="608"/>
      <point x="412" y="646" type="qcurve" smooth="yes"/>
      <point x="412" y="684"/>
      <point x="412" y="684"/>
      <point x="413" y="684" type="qcurve" smooth="yes"/>
      <point x="414" y="684"/>
      <point x="414" y="684"/>
      <point x="415" y="684" type="qcurve" smooth="yes"/>
      <point x="416" y="684"/>
      <point x="416" y="684"/>
      <point x="417" y="684" type="qcurve" smooth="yes"/>
      <point x="418" y="684"/>
      <point x="418" y="684"/>
      <point x="418" y="646" type="qcurve" smooth="yes"/>
      <point x="418" y="608"/>
      <point x="418" y="608"/>
      <point x="417" y="608" type="qcurve" smooth="yes"/>
      <point x="416" y="608"/>
      <point x="416" y="608"/>
      <point x="415" y="608" type="qcurve" smooth="yes"/>
      <point x="414" y="608"/>
      <point x="414" y="608"/>
    </contour>
    <contour>
      <point x="413" y="684" type="qcurve" smooth="yes"/>
      <point x="412" y="684"/>
      <point x="412" y="684"/>
      <point x="412" y="722" type="qcurve" smooth="yes"/>
      <point x="412" y="760"/>
      <point x="412" y="760"/>
      <point x="413" y="760" type="qcurve" smooth="yes"/>
      <point x="414" y="760"/>
      <point x="414" y="760"/>
      <point x="415" y="760" type="qcurve" smooth="yes"/>
      <point x="416" y="760"/>
      <point x="416" y="760"/>
      <point x="417" y="760" type="qcurve" smooth="yes"/>
      <point x="418" y="760"/>
      <point x="418" y="760"/>
      <point x="418" y="722" type="qcurve" smooth="yes"/>
      <point x="418" y="684"/>
      <point x="418" y="684"/>
      <point x="417" y="684" type="qcurve" smooth="yes"/>
      <point x="416" y="684"/>
      <point x="416" y="684"/>
      <point x="415" y="684" type="qcurve" smooth="yes"/>
      <point x="414" y="684"/>
      <point x="414" y="684"/>
    </contour>
    <contour>
      <point x="447" y="1216" type="qcurve" smooth="yes"/>
      <point x="446" y="1216"/>
      <point x="446" y="1216"/>
      <point x="446" y="1254" type="qcurve" smooth="yes"/>
      <point x="446" y="1292"/>
      <point x="446" y="1292"/>
      <point x="447" y="1292" type="qcurve" smooth="yes"/>
      <point x="448" y="1292"/>
      <point x="448" y="1292"/>
      <point x="449" y="1292" type="qcurve" smooth="yes"/>
      <point x="450" y="1292"/>
      <point x="450" y="1292"/>
      <point x="451" y="1292" type="qcurve" smooth="yes"/>
      <point x="452" y="1292"/>
      <point x="452" y="1292"/>
      <point x="452" y="1254" type="qcurve" smooth="yes"/>
      <point x="452" y="1216"/>
      <point x="452" y="1216"/>
      <point x="451" y="1216" type="qcurve" smooth="yes"/>
      <point x="450" y="1216"/>
      <point x="450" y="1216"/>
      <point x="449" y="1216" type="qcurve" smooth="yes"/>
      <point x="448" y="1216"/>
      <point x="448" y="1216"/>
    </contour>
    <contour>
      <point x="447" y="1292" type="qcurve" smooth="yes"/>
      <point x="446" y="1292"/>
      <point x="446" y="1292"/>
      <point x="446" y="1330" type="qcurve" smooth="yes"/>
      <point x="446" y="1368"/>
      <point x="446" y="1368"/>
      <point x="447" y="1368" type="qcurve" smooth="yes"/>
      <point x="448" y="1368"/>
      <point x="448" y="1368"/>
      <point x="449" y="1368" type="qcurve" smooth="yes"/>
      <point x="450" y="1368"/>
      <point x="450" y="1368"/>
      <point x="451" y="1368" type="qcurve" smooth="yes"/>
      <point x="452" y="1368"/>
      <point x="452" y="1368"/>
      <point x="452" y="1330" type="qcurve" smooth="yes"/>
      <point x="452" y="1292"/>
      <point x="452" y="1292"/>
      <point x="451" y="1292" type="qcurve" smooth="yes"/>
      <point x="450" y="1292"/>
      <point x="450" y="1292"/>
      <point x="449" y="1292" type="qcurve" smooth="yes"/>
      <point x="448" y="1292"/>
      <point x="448" y="1292"/>
    </contour>
    <component base="TopElementV2" xOffset="-82"/>
    <component base="BaseTerminal" xOffset="-82"/>
    <component base="MidElement" xOffset="-82"/>
    <component base="WaistElement" xOffset="-82"/>
    <component base="RightBotTerm" xOffset="247" yOffset="608"/>
    <component base="RightTopTerminal" xOffset="328" yOffset="1216"/>
    <component base="RightTopTerminal" xOffset="247" yOffset="608"/>
  </outline>
</glyph>
<glyph name="G" format="1">
  <advance width="1230"/>
  <unicode hex="0047"/>
  <outline>
    <contour>
      <point x="923" y="-24" type="qcurve"/>
      <point x="921" y="-24"/>
      <point x="921" y="-24"/>
      <point x="921" y="6" type="qcurve"/>
      <point x="921" y="49"/>
      <point x="921" y="49"/>
      <point x="923" y="49" type="qcurve"/>
      <point x="924" y="49"/>
      <point x="924" y="49"/>
      <point x="926" y="49" type="qcurve"/>
      <point x="928" y="49"/>
      <point x="928" y="49"/>
      <point x="928" y="8" type="qcurve"/>
      <point x="928" y="-23"/>
      <point x="928" y="-23"/>
      <point x="927" y="-23" type="qcurve"/>
      <point x="925" y="-24"/>
      <point x="925" y="-24"/>
    </contour>
    <contour>
      <point x="923" y="49" type="qcurve"/>
      <point x="921" y="49"/>
      <point x="921" y="49"/>
      <point x="921" y="86" type="qcurve"/>
      <point x="921" y="123"/>
      <point x="921" y="123"/>
      <point x="922" y="123" type="qcurve"/>
      <point x="924" y="124"/>
      <point x="925" y="124"/>
      <point x="927" y="124" type="qcurve"/>
      <point x="928" y="125"/>
      <point x="928" y="125"/>
      <point x="928" y="87" type="qcurve"/>
      <point x="928" y="49"/>
      <point x="928" y="49"/>
      <point x="926" y="49" type="qcurve"/>
      <point x="924" y="49"/>
      <point x="924" y="49"/>
    </contour>
    <contour>
      <point x="915" y="1246" type="qcurve"/>
      <point x="914" y="1246"/>
      <point x="914" y="1246"/>
      <point x="914" y="1283" type="qcurve"/>
      <point x="914" y="1320"/>
      <point x="914" y="1320"/>
      <point x="916" y="1320" type="qcurve"/>
      <point x="917" y="1320"/>
      <point x="917" y="1320"/>
      <point x="919" y="1320" type="qcurve"/>
      <point x="921" y="1320"/>
      <point x="921" y="1320"/>
      <point x="921" y="1282" type="qcurve"/>
      <point x="921" y="1244"/>
      <point x="921" y="1244"/>
      <point x="920" y="1245" type="qcurve"/>
      <point x="917" y="1245"/>
      <point x="917" y="1245"/>
    </contour>
    <contour>
      <point x="916" y="1320" type="qcurve"/>
      <point x="914" y="1320"/>
      <point x="914" y="1320"/>
      <point x="914" y="1363" type="qcurve"/>
      <point x="914" y="1398"/>
      <point x="914" y="1398"/>
      <point x="916" y="1398" type="qcurve"/>
      <point x="918" y="1398"/>
      <point x="918" y="1398"/>
      <point x="920" y="1397" type="qcurve"/>
      <point x="921" y="1397"/>
      <point x="921" y="1397"/>
      <point x="921" y="1361" type="qcurve"/>
      <point x="921" y="1320"/>
      <point x="921" y="1320"/>
      <point x="919" y="1320" type="qcurve"/>
      <point x="917" y="1320"/>
      <point x="917" y="1320"/>
    </contour>
    <contour>
      <point x="1025" y="353" type="qcurve"/>
      <point x="984" y="353"/>
      <point x="984" y="353"/>
      <point x="984" y="353" type="qcurve"/>
      <point x="984" y="354"/>
      <point x="984" y="354"/>
      <point x="984" y="355" type="qcurve"/>
      <point x="984" y="355"/>
      <point x="984" y="355"/>
      <point x="1025" y="355" type="qcurve"/>
      <point x="1066" y="355"/>
      <point x="1066" y="355"/>
      <point x="1066" y="355" type="qcurve"/>
      <point x="1066" y="354"/>
      <point x="1066" y="354"/>
      <point x="1066" y="353" type="qcurve"/>
      <point x="1066" y="353"/>
      <point x="1066" y="353"/>
    </contour>
    <contour>
      <point x="1107" y="353" type="qcurve"/>
      <point x="1066" y="353"/>
      <point x="1066" y="353"/>
      <point x="1066" y="353" type="qcurve"/>
      <point x="1066" y="354"/>
      <point x="1066" y="354"/>
      <point x="1066" y="355" type="qcurve"/>
      <point x="1066" y="355"/>
      <point x="1066" y="355"/>
      <point x="1107" y="355" type="qcurve"/>
      <point x="1148" y="355"/>
      <point x="1148" y="355"/>
      <point x="1148" y="355" type="qcurve"/>
      <point x="1148" y="354"/>
      <point x="1148" y="354"/>
      <point x="1148" y="353" type="qcurve"/>
      <point x="1148" y="353"/>
      <point x="1148" y="353"/>
    </contour>
    <contour>
      <point x="772" y="-29" type="qcurve"/>
      <point x="738" y="-26"/>
      <point x="738" y="-26"/>
      <point x="738" y="13" type="qcurve"/>
      <point x="738" y="49"/>
      <point x="738" y="49"/>
      <point x="772" y="45" type="qcurve"/>
      <point x="805" y="44"/>
      <point x="805" y="44"/>
      <point x="805" y="9" type="qcurve"/>
      <point x="805" y="-30"/>
      <point x="805" y="-30"/>
    </contour>
    <contour>
      <point x="772" y="45" type="qcurve"/>
      <point x="738" y="49"/>
      <point x="738" y="49"/>
      <point x="738" y="82" type="qcurve" smooth="yes"/>
      <point x="738" y="123"/>
      <point x="738" y="123"/>
      <point x="773" y="120" type="qcurve"/>
      <point x="805" y="119"/>
      <point x="805" y="119"/>
      <point x="805" y="78" type="qcurve"/>
      <point x="805" y="44"/>
      <point x="805" y="44"/>
    </contour>
    <contour>
      <point x="774" y="1248" type="qcurve"/>
      <point x="738" y="1244"/>
      <point x="738" y="1244"/>
      <point x="738" y="1287" type="qcurve" smooth="yes"/>
      <point x="738" y="1322"/>
      <point x="738" y="1322"/>
      <point x="775" y="1324" type="qcurve"/>
      <point x="804" y="1325"/>
      <point x="804" y="1325"/>
      <point x="804" y="1289" type="qcurve"/>
      <point x="804" y="1250"/>
      <point x="804" y="1250"/>
    </contour>
    <contour>
      <point x="775" y="1324" type="qcurve"/>
      <point x="738" y="1322"/>
      <point x="738" y="1322"/>
      <point x="738" y="1359" type="qcurve"/>
      <point x="738" y="1401"/>
      <point x="738" y="1401"/>
      <point x="774" y="1403" type="qcurve"/>
      <point x="804" y="1403"/>
      <point x="804" y="1403"/>
      <point x="804" y="1361" type="qcurve"/>
      <point x="804" y="1325"/>
      <point x="804" y="1325"/>
    </contour>
    <contour>
      <point x="828" y="-30" type="qcurve"/>
      <point x="795" y="-30"/>
      <point x="795" y="-30"/>
      <point x="795" y="9" type="qcurve"/>
      <point x="795" y="44"/>
      <point x="795" y="44"/>
      <point x="826" y="44" type="qcurve"/>
      <point x="857" y="44"/>
      <point x="857" y="44"/>
      <point x="857" y="9" type="qcurve"/>
      <point x="857" y="-29"/>
      <point x="857" y="-29"/>
    </contour>
    <contour>
      <point x="826" y="44" type="qcurve"/>
      <point x="795" y="44"/>
      <point x="795" y="44"/>
      <point x="795" y="78" type="qcurve"/>
      <point x="795" y="119"/>
      <point x="795" y="119"/>
      <point x="827" y="119" type="qcurve"/>
      <point x="857" y="119"/>
      <point x="857" y="119"/>
      <point x="857" y="81" type="qcurve" smooth="yes"/>
      <point x="857" y="44"/>
      <point x="857" y="44"/>
    </contour>
    <contour>
      <point x="838" y="1250" type="qcurve"/>
      <point x="804" y="1250"/>
      <point x="804" y="1250"/>
      <point x="804" y="1289" type="qcurve"/>
      <point x="804" y="1325"/>
      <point x="804" y="1325"/>
      <point x="838" y="1325" type="qcurve"/>
      <point x="870" y="1324"/>
      <point x="870" y="1324"/>
      <point x="870" y="1286" type="qcurve" smooth="yes"/>
      <point x="870" y="1249"/>
      <point x="870" y="1249"/>
    </contour>
    <contour>
      <point x="838" y="1325" type="qcurve"/>
      <point x="804" y="1325"/>
      <point x="804" y="1325"/>
      <point x="804" y="1361" type="qcurve"/>
      <point x="804" y="1403"/>
      <point x="804" y="1403"/>
      <point x="838" y="1403" type="qcurve"/>
      <point x="870" y="1402"/>
      <point x="870" y="1402"/>
      <point x="870" y="1361" type="qcurve"/>
      <point x="870" y="1324"/>
      <point x="870" y="1324"/>
    </contour>
    <contour>
      <point x="1025" y="-1" type="qcurve"/>
      <point x="984" y="-11"/>
      <point x="984" y="-11"/>
      <point x="984" y="24" type="qcurve"/>
      <point x="984" y="62"/>
      <point x="984" y="62"/>
      <point x="1026" y="74" type="qcurve"/>
      <point x="1066" y="88"/>
      <point x="1066" y="88"/>
      <point x="1066" y="50" type="qcurve"/>
      <point x="1066" y="11"/>
      <point x="1066" y="11"/>
    </contour>
    <contour>
      <point x="1026" y="64" type="qcurve"/>
      <point x="984" y="52"/>
      <point x="984" y="52"/>
      <point x="984" y="89" type="qcurve"/>
      <point x="984" y="126"/>
      <point x="984" y="126"/>
      <point x="1027" y="139" type="qcurve"/>
      <point x="1066" y="155"/>
      <point x="1066" y="155"/>
      <point x="1066" y="117" type="qcurve"/>
      <point x="1066" y="78"/>
      <point x="1066" y="78"/>
    </contour>
    <contour>
      <point x="1107" y="27" type="qcurve"/>
      <point x="1066" y="11"/>
      <point x="1066" y="11"/>
      <point x="1066" y="50" type="qcurve"/>
      <point x="1066" y="88"/>
      <point x="1066" y="88"/>
      <point x="1107" y="107" type="qcurve"/>
      <point x="1148" y="131"/>
      <point x="1148" y="131"/>
      <point x="1148" y="76" type="qcurve"/>
      <point x="1148" y="45"/>
      <point x="1148" y="45"/>
    </contour>
    <contour>
      <point x="1107" y="97" type="qcurve"/>
      <point x="1066" y="78"/>
      <point x="1066" y="78"/>
      <point x="1066" y="117" type="qcurve"/>
      <point x="1066" y="155"/>
      <point x="1066" y="155"/>
      <point x="1106" y="176" type="qcurve"/>
      <point x="1148" y="205"/>
      <point x="1148" y="205"/>
      <point x="1148" y="153" type="qcurve" smooth="yes"/>
      <point x="1148" y="121"/>
      <point x="1148" y="121"/>
    </contour>
    <component base="TopTerminalV3" xOffset="738" yOffset="-716"/>
    <component base="TopCurvedElement" xOffset="719" yOffset="3"/>
    <component base="RoundWaistElement270" xOffset="82"/>
    <component base="RoundDualySW" xOffset="85"/>
    <component base="RoundDualyNW" xOffset="85"/>
  </outline>
</glyph>
<glyph name="H" format="1">
  <advance width="1476"/>
  <unicode hex="0048"/>
  <outline>
    <contour>
      <point x="736" y="608" type="qcurve"/>
      <point x="735" y="608"/>
      <point x="735" y="608"/>
      <point x="735" y="646" type="qcurve" smooth="yes"/>
      <point x="735" y="684"/>
      <point x="735" y="684"/>
      <point x="736" y="684" type="qcurve"/>
      <point x="736" y="684"/>
      <point x="737" y="684"/>
      <point x="738" y="684" type="qcurve" smooth="yes"/>
      <point x="739" y="684"/>
      <point x="740" y="684"/>
      <point x="740" y="684" type="qcurve" smooth="yes"/>
      <point x="741" y="684"/>
      <point x="741" y="684"/>
      <point x="741" y="646" type="qcurve" smooth="yes"/>
      <point x="741" y="608"/>
      <point x="741" y="608"/>
      <point x="740" y="608" type="qcurve"/>
      <point x="740" y="608"/>
      <point x="739" y="608"/>
      <point x="738" y="608" type="qcurve"/>
      <point x="737" y="608"/>
      <point x="736" y="608"/>
    </contour>
    <contour>
      <point x="736" y="684" type="qcurve"/>
      <point x="735" y="684"/>
      <point x="735" y="684"/>
      <point x="735" y="722" type="qcurve" smooth="yes"/>
      <point x="735" y="760"/>
      <point x="735" y="760"/>
      <point x="736" y="760" type="qcurve"/>
      <point x="736" y="760"/>
      <point x="737" y="760"/>
      <point x="738" y="760" type="qcurve" smooth="yes"/>
      <point x="739" y="760"/>
      <point x="740" y="760"/>
      <point x="740" y="760" type="qcurve" smooth="yes"/>
      <point x="741" y="760"/>
      <point x="741" y="760"/>
      <point x="741" y="722" type="qcurve" smooth="yes"/>
      <point x="741" y="684"/>
      <point x="741" y="684"/>
      <point x="740" y="684" type="qcurve"/>
      <point x="740" y="684"/>
      <point x="739" y="684"/>
      <point x="738" y="684" type="qcurve"/>
      <point x="737" y="684"/>
      <point x="736" y="684"/>
    </contour>
    <component base="CapStemPatternV3" xOffset="-82"/>
    <component base="CapStemPatternV3" xOffset="902"/>
  </outline>
</glyph>
<glyph name="K" format="1">
  <advance width="1163"/>
  <unicode hex="004B"/>
  <outline>
    <contour>
      <point x="205" y="379" type="qcurve"/>
      <point x="164" y="379"/>
      <point x="164" y="379"/>
      <point x="164" y="379" type="qcurve"/>
      <point x="164" y="379"/>
      <point x="164" y="381"/>
      <point x="164" y="380" type="qcurve"/>
      <point x="164" y="380"/>
      <point x="164" y="381"/>
      <point x="164" y="381" type="qcurve"/>
      <point x="164" y="381"/>
      <point x="164" y="381"/>
      <point x="205" y="381" type="qcurve"/>
      <point x="246" y="381"/>
      <point x="246" y="381"/>
      <point x="246" y="381" type="qcurve"/>
      <point x="246" y="381"/>
      <point x="246" y="380"/>
      <point x="246" y="380" type="qcurve"/>
      <point x="246" y="380"/>
      <point x="246" y="379"/>
      <point x="246" y="379" type="qcurve"/>
      <point x="246" y="379"/>
      <point x="246" y="379"/>
    </contour>
    <contour>
      <point x="205" y="987" type="qcurve"/>
      <point x="164" y="987"/>
      <point x="164" y="987"/>
      <point x="164" y="987" type="qcurve"/>
      <point x="164" y="987"/>
      <point x="164" y="988"/>
      <point x="164" y="988" type="qcurve"/>
      <point x="164" y="988"/>
      <point x="164" y="989"/>
      <point x="164" y="989" type="qcurve"/>
      <point x="164" y="989"/>
      <point x="164" y="989"/>
      <point x="205" y="989" type="qcurve" smooth="yes"/>
      <point x="246" y="989"/>
      <point x="246" y="989"/>
      <point x="246" y="989" type="qcurve"/>
      <point x="246" y="989"/>
      <point x="246" y="988"/>
      <point x="246" y="988" type="qcurve"/>
      <point x="246" y="988"/>
      <point x="246" y="987"/>
      <point x="246" y="987" type="qcurve"/>
      <point x="246" y="987"/>
      <point x="246" y="987"/>
    </contour>
    <contour>
      <point x="287" y="379" type="qcurve"/>
      <point x="246" y="379"/>
      <point x="246" y="379"/>
      <point x="246" y="379" type="qcurve"/>
      <point x="246" y="379"/>
      <point x="246" y="380"/>
      <point x="246" y="380" type="qcurve"/>
      <point x="246" y="380"/>
      <point x="246" y="381"/>
      <point x="246" y="381" type="qcurve"/>
      <point x="246" y="381"/>
      <point x="246" y="381"/>
      <point x="287" y="381" type="qcurve"/>
      <point x="328" y="381"/>
      <point x="328" y="381"/>
      <point x="328" y="381" type="qcurve"/>
      <point x="328" y="381"/>
      <point x="328" y="380"/>
      <point x="328" y="380" type="qcurve"/>
      <point x="328" y="380"/>
      <point x="328" y="379"/>
      <point x="328" y="379" type="qcurve"/>
      <point x="328" y="379"/>
      <point x="328" y="379"/>
    </contour>
    <contour>
      <point x="287" y="987" type="qcurve"/>
      <point x="246" y="987"/>
      <point x="246" y="987"/>
      <point x="246" y="987" type="qcurve"/>
      <point x="246" y="987"/>
      <point x="246" y="988"/>
      <point x="246" y="988" type="qcurve"/>
      <point x="246" y="988"/>
      <point x="246" y="989"/>
      <point x="246" y="989" type="qcurve"/>
      <point x="246" y="989"/>
      <point x="246" y="989"/>
      <point x="287" y="989" type="qcurve" smooth="yes"/>
      <point x="328" y="989"/>
      <point x="328" y="989"/>
      <point x="328" y="989" type="qcurve"/>
      <point x="328" y="989"/>
      <point x="328" y="988"/>
      <point x="328" y="988" type="qcurve"/>
      <point x="328" y="988"/>
      <point x="328" y="987"/>
      <point x="328" y="987" type="qcurve"/>
      <point x="328" y="987"/>
      <point x="328" y="987"/>
    </contour>
    <contour>
      <point x="693" y="345" type="qcurve"/>
      <point x="693" y="345"/>
      <point x="692" y="346"/>
      <point x="692" y="346" type="qcurve"/>
      <point x="692" y="346"/>
      <point x="690" y="348"/>
      <point x="690" y="348" type="qcurve"/>
      <point x="690" y="348"/>
      <point x="690" y="348"/>
      <point x="717" y="374" type="qcurve"/>
      <point x="747" y="402"/>
      <point x="747" y="402"/>
      <point x="747" y="402" type="qcurve"/>
      <point x="747" y="402"/>
      <point x="749" y="400"/>
      <point x="749" y="400" type="qcurve"/>
      <point x="749" y="400"/>
      <point x="750" y="399"/>
      <point x="750" y="399" type="qcurve"/>
      <point x="750" y="399"/>
      <point x="750" y="399"/>
      <point x="720" y="371" type="qcurve"/>
      <point x="693" y="345"/>
      <point x="693" y="345"/>
    </contour>
    <contour>
      <point x="717" y="1021" type="qcurve"/>
      <point x="693" y="1044"/>
      <point x="693" y="1044"/>
      <point x="693" y="1044" type="qcurve"/>
      <point x="693" y="1044"/>
      <point x="695" y="1046"/>
      <point x="695" y="1046" type="qcurve"/>
      <point x="695" y="1046"/>
      <point x="696" y="1047"/>
      <point x="696" y="1047" type="qcurve"/>
      <point x="696" y="1047"/>
      <point x="696" y="1047"/>
      <point x="720" y="1024" type="qcurve"/>
      <point x="750" y="996"/>
      <point x="750" y="996"/>
      <point x="750" y="996" type="qcurve"/>
      <point x="750" y="996"/>
      <point x="749" y="995"/>
      <point x="749" y="995" type="qcurve"/>
      <point x="749" y="995"/>
      <point x="747" y="993"/>
      <point x="747" y="993" type="qcurve"/>
      <point x="747" y="993"/>
      <point x="747" y="993"/>
    </contour>
    <contour>
      <point x="750" y="399" type="qcurve"/>
      <point x="750" y="399"/>
      <point x="749" y="400"/>
      <point x="749" y="400" type="qcurve"/>
      <point x="749" y="400"/>
      <point x="747" y="402"/>
      <point x="747" y="402" type="qcurve"/>
      <point x="747" y="402"/>
      <point x="747" y="402"/>
      <point x="776" y="430" type="qcurve"/>
      <point x="803" y="457"/>
      <point x="803" y="457"/>
      <point x="803" y="457" type="qcurve"/>
      <point x="803" y="457"/>
      <point x="805" y="455"/>
      <point x="805" y="455" type="qcurve"/>
      <point x="805" y="455"/>
      <point x="806" y="454"/>
      <point x="806" y="454" type="qcurve"/>
      <point x="806" y="454"/>
      <point x="806" y="454"/>
      <point x="779" y="427" type="qcurve"/>
      <point x="750" y="399"/>
      <point x="750" y="399"/>
    </contour>
    <contour>
      <point x="776" y="965" type="qcurve"/>
      <point x="747" y="993"/>
      <point x="747" y="993"/>
      <point x="747" y="993" type="qcurve"/>
      <point x="747" y="993"/>
      <point x="749" y="995"/>
      <point x="749" y="995" type="qcurve"/>
      <point x="749" y="995"/>
      <point x="750" y="996"/>
      <point x="750" y="996" type="qcurve"/>
      <point x="750" y="996"/>
      <point x="750" y="996"/>
      <point x="779" y="968" type="qcurve"/>
      <point x="803" y="944"/>
      <point x="803" y="944"/>
      <point x="803" y="944" type="qcurve"/>
      <point x="803" y="944"/>
      <point x="802" y="943"/>
      <point x="802" y="943" type="qcurve"/>
      <point x="802" y="943"/>
      <point x="800" y="941"/>
      <point x="800" y="941" type="qcurve"/>
      <point x="800" y="941"/>
      <point x="800" y="941"/>
    </contour>
    <contour>
      <point x="365" y="622" type="qcurve"/>
      <point x="328" y="624"/>
      <point x="328" y="624"/>
      <point x="328" y="662" type="qcurve"/>
      <point x="328" y="700"/>
      <point x="328" y="700"/>
      <point x="364" y="700" type="qcurve" smooth="yes"/>
      <point x="397" y="700"/>
      <point x="397" y="700"/>
      <point x="397" y="660" type="qcurve"/>
      <point x="397" y="618"/>
      <point x="397" y="618"/>
    </contour>
    <contour>
      <point x="364" y="700" type="qcurve" smooth="yes"/>
      <point x="328" y="700"/>
      <point x="328" y="700"/>
      <point x="328" y="738" type="qcurve"/>
      <point x="328" y="776"/>
      <point x="328" y="776"/>
      <point x="364" y="778" type="qcurve"/>
      <point x="397" y="782"/>
      <point x="397" y="782"/>
      <point x="397" y="738" type="qcurve"/>
      <point x="397" y="700"/>
      <point x="397" y="700"/>
    </contour>
    <contour>
      <point x="426" y="610" type="qcurve"/>
      <point x="397" y="618"/>
      <point x="397" y="618"/>
      <point x="397" y="660" type="qcurve"/>
      <point x="397" y="700"/>
      <point x="397" y="700"/>
      <point x="460" y="683" type="qcurve"/>
      <point x="503" y="646"/>
      <point x="503" y="646"/>
      <point x="476" y="619" type="qcurve"/>
      <point x="448" y="591"/>
      <point x="448" y="591"/>
    </contour>
    <contour>
      <point x="531" y="674" type="qcurve"/>
      <point x="503" y="646"/>
      <point x="503" y="646"/>
      <point x="460" y="683" type="qcurve"/>
      <point x="397" y="700"/>
      <point x="397" y="700"/>
      <point x="460" y="721" type="qcurve"/>
      <point x="507" y="754"/>
      <point x="507" y="754"/>
      <point x="533" y="728" type="qcurve"/>
      <point x="559" y="702"/>
      <point x="559" y="702"/>
    </contour>
    <contour>
      <point x="460" y="721" type="qcurve"/>
      <point x="397" y="700"/>
      <point x="397" y="700"/>
      <point x="397" y="738" type="qcurve"/>
      <point x="397" y="782"/>
      <point x="397" y="782"/>
      <point x="426" y="790" type="qcurve"/>
      <point x="455" y="806"/>
      <point x="455" y="806"/>
      <point x="481" y="780" type="qcurve"/>
      <point x="507" y="754"/>
      <point x="507" y="754"/>
    </contour>
    <component base="CWTerm" xScale="0.7071067811865476" xyScale="-0.7071067811865475" yxScale="0.7071067811865475" yScale="0.7071067811865476" xOffset="-64" yOffset="537"/>
    <component base="CCWTerm" xScale="-0.7071067811865474" xyScale="-0.7071067811865477" yxScale="0.7071067811865477" yScale="-0.7071067811865474" xOffset="326" yOffset="1184"/>
    <component base="TopTerminalV3" xOffset="-82"/>
    <component base="WaistElement" xOffset="-82" yOffset="16"/>
    <component base="BaseTerminal" xOffset="-82"/>
  </outline>
</glyph>
<glyph name="L" format="1">
  <advance width="830.0"/>
  <unicode hex="004C"/>
  <outline>
    <contour>
      <point x="488" y="0" type="qcurve"/>
      <point x="487" y="0"/>
      <point x="487" y="0"/>
      <point x="487" y="38" type="qcurve"/>
      <point x="487" y="76"/>
      <point x="487" y="76"/>
      <point x="488" y="76" type="qcurve"/>
      <point x="489" y="76"/>
      <point x="491" y="76"/>
      <point x="492" y="76" type="qcurve"/>
      <point x="493" y="76"/>
      <point x="493" y="76"/>
      <point x="493" y="38" type="qcurve"/>
      <point x="493" y="0"/>
      <point x="493" y="0"/>
      <point x="492" y="0" type="qcurve"/>
      <point x="491" y="0"/>
      <point x="489" y="0"/>
    </contour>
    <contour>
      <point x="488" y="76" type="qcurve"/>
      <point x="487" y="76"/>
      <point x="487" y="76"/>
      <point x="487" y="114" type="qcurve"/>
      <point x="487" y="152"/>
      <point x="487" y="152"/>
      <point x="488" y="152" type="qcurve"/>
      <point x="489" y="152"/>
      <point x="491" y="152"/>
      <point x="492" y="152" type="qcurve"/>
      <point x="493" y="152"/>
      <point x="493" y="152"/>
      <point x="493" y="114" type="qcurve"/>
      <point x="493" y="76"/>
      <point x="493" y="76"/>
      <point x="492" y="76" type="qcurve"/>
      <point x="491" y="76"/>
      <point x="489" y="76"/>
    </contour>
    <component base="BaseElementV2" xOffset="-82"/>
    <component base="TopTerminalV3" xOffset="-82"/>
    <component base="MidElement" xOffset="-82"/>
    <component base="WaistElement" xOffset="-82"/>
    <component base="RightBotTerm" xOffset="410"/>
  </outline>
</glyph>
<glyph name="M" format="1">
  <advance width="1644"/>
  <unicode hex="004D"/>
  <outline>
    <contour>
      <point x="206" y="760" type="qcurve"/>
      <point x="164" y="760"/>
      <point x="164" y="760"/>
      <point x="164" y="830" type="qcurve"/>
      <point x="164" y="879"/>
      <point x="164" y="1005"/>
      <point x="164" y="1066" type="qcurve" smooth="yes"/>
      <point x="164" y="1116"/>
      <point x="164" y="1216"/>
      <point x="164" y="1285" type="qcurve"/>
      <point x="164" y="1292"/>
      <point x="164" y="1292"/>
      <point x="206" y="1292" type="qcurve"/>
      <point x="246" y="1292"/>
      <point x="246" y="1292"/>
      <point x="246" y="1285" type="qcurve"/>
      <point x="246" y="1277"/>
      <point x="246" y="1168"/>
      <point x="246" y="1062" type="qcurve" smooth="yes"/>
      <point x="246" y="984"/>
      <point x="246" y="885"/>
      <point x="246" y="830" type="qcurve"/>
      <point x="246" y="760"/>
      <point x="246" y="760"/>
    </contour>
    <contour>
      <point x="572" y="695" type="qcurve"/>
      <point x="536" y="677"/>
      <point x="536" y="677"/>
      <point x="510" y="734" type="qcurve"/>
      <point x="476" y="811"/>
      <point x="377" y="1004"/>
      <point x="353" y="1055" type="qcurve"/>
      <point x="246" y="1292"/>
      <point x="246" y="1292"/>
      <point x="246" y="1318" type="qcurve"/>
      <point x="246" y="1368"/>
      <point x="246" y="1368"/>
      <point x="275" y="1368" type="qcurve"/>
      <point x="296" y="1368"/>
      <point x="296" y="1368"/>
      <point x="318" y="1317" type="qcurve"/>
      <point x="354" y="1231"/>
      <point x="402" y="1132"/>
      <point x="427" y="1078" type="qcurve" smooth="yes"/>
      <point x="478" y="967"/>
      <point x="542" y="842"/>
      <point x="581" y="762" type="qcurve"/>
      <point x="607" y="711"/>
      <point x="607" y="711"/>
    </contour>
    <contour>
      <point x="1073" y="693" type="qcurve"/>
      <point x="1041" y="708"/>
      <point x="1041" y="708"/>
      <point x="1089" y="805" type="qcurve"/>
      <point x="1106" y="841"/>
      <point x="1166" y="967"/>
      <point x="1217" y="1078" type="qcurve" smooth="yes"/>
      <point x="1242" y="1132"/>
      <point x="1290" y="1231"/>
      <point x="1326" y="1317" type="qcurve"/>
      <point x="1348" y="1368"/>
      <point x="1348" y="1368"/>
      <point x="1369" y="1368" type="qcurve"/>
      <point x="1398" y="1368"/>
      <point x="1398" y="1368"/>
      <point x="1398" y="1318" type="qcurve"/>
      <point x="1398" y="1277"/>
      <point x="1398" y="1277"/>
      <point x="1291" y="1055" type="qcurve"/>
      <point x="1269" y="1008"/>
      <point x="1172" y="810"/>
      <point x="1158" y="780" type="qcurve"/>
      <point x="1108" y="677"/>
      <point x="1108" y="677"/>
    </contour>
    <contour>
      <point x="1438" y="760" type="qcurve"/>
      <point x="1398" y="760"/>
      <point x="1398" y="760"/>
      <point x="1398" y="830" type="qcurve"/>
      <point x="1398" y="885"/>
      <point x="1398" y="984"/>
      <point x="1398" y="1062" type="qcurve" smooth="yes"/>
      <point x="1398" y="1168"/>
      <point x="1398" y="1187"/>
      <point x="1398" y="1261" type="qcurve"/>
      <point x="1398" y="1277"/>
      <point x="1398" y="1277"/>
      <point x="1438" y="1277" type="qcurve"/>
      <point x="1480" y="1277"/>
      <point x="1480" y="1277"/>
      <point x="1480" y="1261" type="qcurve"/>
      <point x="1480" y="1186"/>
      <point x="1480" y="1116"/>
      <point x="1480" y="1066" type="qcurve" smooth="yes"/>
      <point x="1480" y="1005"/>
      <point x="1480" y="879"/>
      <point x="1480" y="830" type="qcurve"/>
      <point x="1480" y="760"/>
      <point x="1480" y="760"/>
    </contour>
    <contour>
      <point x="286" y="760" type="qcurve"/>
      <point x="246" y="760"/>
      <point x="246" y="760"/>
      <point x="246" y="830" type="qcurve"/>
      <point x="246" y="918"/>
      <point x="246" y="1115"/>
      <point x="246" y="1182" type="qcurve"/>
      <point x="246" y="1292"/>
      <point x="246" y="1292"/>
      <point x="292" y="1191" type="qcurve"/>
      <point x="328" y="1111"/>
      <point x="328" y="1111"/>
      <point x="328" y="1005" type="qcurve"/>
      <point x="328" y="953"/>
      <point x="328" y="864"/>
      <point x="328" y="830" type="qcurve"/>
      <point x="328" y="760"/>
      <point x="328" y="760"/>
    </contour>
    <contour>
      <point x="500" y="661" type="qcurve"/>
      <point x="465" y="645"/>
      <point x="465" y="645"/>
      <point x="440" y="700" type="qcurve"/>
      <point x="410" y="764"/>
      <point x="360" y="869"/>
      <point x="351" y="888" type="qcurve"/>
      <point x="328" y="943"/>
      <point x="328" y="943"/>
      <point x="328" y="1005" type="qcurve"/>
      <point x="328" y="1111"/>
      <point x="328" y="1111"/>
      <point x="353" y="1055" type="qcurve"/>
      <point x="377" y="1004"/>
      <point x="476" y="811"/>
      <point x="510" y="734" type="qcurve"/>
      <point x="536" y="677"/>
      <point x="536" y="677"/>
    </contour>
    <contour>
      <point x="637" y="369" type="qcurve"/>
      <point x="605" y="354"/>
      <point x="605" y="354"/>
      <point x="605" y="354" type="qcurve"/>
      <point x="604" y="356"/>
      <point x="604" y="356"/>
      <point x="603" y="358" type="qcurve"/>
      <point x="603" y="358"/>
      <point x="603" y="358"/>
      <point x="635" y="373" type="qcurve"/>
      <point x="672" y="390"/>
      <point x="672" y="390"/>
      <point x="672" y="390" type="qcurve"/>
      <point x="673" y="387"/>
      <point x="673" y="387"/>
      <point x="674" y="386" type="qcurve"/>
      <point x="674" y="386"/>
      <point x="674" y="386"/>
    </contour>
    <contour>
      <point x="711" y="403" type="qcurve"/>
      <point x="674" y="386"/>
      <point x="674" y="386"/>
      <point x="674" y="386" type="qcurve"/>
      <point x="673" y="387"/>
      <point x="673" y="387"/>
      <point x="672" y="390" type="qcurve"/>
      <point x="672" y="390"/>
      <point x="672" y="390"/>
      <point x="709" y="407" type="qcurve"/>
      <point x="741" y="423"/>
      <point x="741" y="423"/>
      <point x="741" y="423" type="qcurve"/>
      <point x="742" y="420"/>
      <point x="742" y="420"/>
      <point x="743" y="419" type="qcurve"/>
      <point x="743" y="419"/>
      <point x="743" y="419"/>
    </contour>
    <contour>
      <point x="935" y="404" type="qcurve"/>
      <point x="903" y="419"/>
      <point x="903" y="419"/>
      <point x="903" y="419" type="qcurve"/>
      <point x="904" y="421"/>
      <point x="904" y="421"/>
      <point x="905" y="423" type="qcurve"/>
      <point x="905" y="423"/>
      <point x="905" y="423"/>
      <point x="937" y="408" type="qcurve"/>
      <point x="972" y="392"/>
      <point x="972" y="392"/>
      <point x="972" y="392" type="qcurve"/>
      <point x="971" y="390"/>
      <point x="971" y="390"/>
      <point x="970" y="388" type="qcurve"/>
      <point x="970" y="388"/>
      <point x="970" y="388"/>
    </contour>
    <contour>
      <point x="1005" y="372" type="qcurve"/>
      <point x="970" y="388"/>
      <point x="970" y="388"/>
      <point x="970" y="388" type="qcurve"/>
      <point x="971" y="390"/>
      <point x="971" y="390"/>
      <point x="972" y="392" type="qcurve"/>
      <point x="972" y="392"/>
      <point x="972" y="392"/>
      <point x="1008" y="376" type="qcurve"/>
      <point x="1042" y="360"/>
      <point x="1042" y="360"/>
      <point x="1042" y="360" type="qcurve"/>
      <point x="1041" y="358"/>
      <point x="1041" y="358"/>
      <point x="1040" y="356" type="qcurve"/>
      <point x="1040" y="356"/>
      <point x="1040" y="356"/>
    </contour>
    <contour>
      <point x="1140" y="662" type="qcurve"/>
      <point x="1108" y="677"/>
      <point x="1108" y="677"/>
      <point x="1158" y="780" type="qcurve"/>
      <point x="1172" y="810"/>
      <point x="1267" y="1004"/>
      <point x="1291" y="1055" type="qcurve"/>
      <point x="1316" y="1107"/>
      <point x="1316" y="1107"/>
      <point x="1316" y="1032" type="qcurve"/>
      <point x="1316" y="953"/>
      <point x="1316" y="953"/>
      <point x="1293" y="898" type="qcurve"/>
      <point x="1284" y="879"/>
      <point x="1231" y="767"/>
      <point x="1222" y="747" type="qcurve"/>
      <point x="1175" y="646"/>
      <point x="1175" y="646"/>
    </contour>
    <contour>
      <point x="1358" y="760" type="qcurve"/>
      <point x="1316" y="760"/>
      <point x="1316" y="760"/>
      <point x="1316" y="830" type="qcurve"/>
      <point x="1316" y="864"/>
      <point x="1316" y="953"/>
      <point x="1316" y="1005" type="qcurve"/>
      <point x="1316" y="1107"/>
      <point x="1316" y="1107"/>
      <point x="1357" y="1192" type="qcurve"/>
      <point x="1398" y="1277"/>
      <point x="1398" y="1277"/>
      <point x="1398" y="1182" type="qcurve"/>
      <point x="1398" y="1115"/>
      <point x="1398" y="918"/>
      <point x="1398" y="830" type="qcurve"/>
      <point x="1398" y="760"/>
      <point x="1398" y="760"/>
    </contour>
    <contour>
      <point x="796" y="0" type="qcurve" smooth="yes"/>
      <point x="768" y="0"/>
      <point x="768" y="0"/>
      <point x="751" y="39" type="qcurve"/>
      <point x="732" y="80"/>
      <point x="732" y="80"/>
      <point x="776" y="80" type="qcurve"/>
      <point x="822" y="80"/>
      <point x="822" y="80"/>
      <point x="822" y="39" type="qcurve" smooth="yes"/>
      <point x="822" y="0"/>
      <point x="822" y="0"/>
    </contour>
    <contour>
      <point x="776" y="80" type="qcurve"/>
      <point x="732" y="80"/>
      <point x="732" y="80"/>
      <point x="716" y="116" type="qcurve"/>
      <point x="699" y="152"/>
      <point x="699" y="152"/>
      <point x="742" y="152" type="qcurve"/>
      <point x="784" y="152"/>
      <point x="784" y="152"/>
      <point x="802" y="118" type="qcurve"/>
      <point x="822" y="80"/>
      <point x="822" y="80"/>
    </contour>
    <contour>
      <point x="848" y="0" type="qcurve" smooth="yes"/>
      <point x="822" y="0"/>
      <point x="822" y="0"/>
      <point x="822" y="39" type="qcurve" smooth="yes"/>
      <point x="822" y="80"/>
      <point x="822" y="80"/>
      <point x="868" y="80" type="qcurve"/>
      <point x="911" y="80"/>
      <point x="911" y="80"/>
      <point x="893" y="39" type="qcurve"/>
      <point x="876" y="0"/>
      <point x="876" y="0"/>
    </contour>
    <contour>
      <point x="868" y="80" type="qcurve"/>
      <point x="822" y="80"/>
      <point x="822" y="80"/>
      <point x="842" y="118" type="qcurve"/>
      <point x="860" y="152"/>
      <point x="860" y="152"/>
      <point x="902" y="152" type="qcurve"/>
      <point x="944" y="152"/>
      <point x="944" y="152"/>
      <point x="927" y="116" type="qcurve"/>
      <point x="911" y="80"/>
      <point x="911" y="80"/>
    </contour>
    <contour>
      <point x="822" y="80" type="qcurve"/>
      <point x="784" y="152"/>
      <point x="784" y="152"/>
      <point x="803" y="199" type="qcurve"/>
      <point x="822" y="245"/>
      <point x="822" y="245"/>
      <point x="841" y="199" type="qcurve"/>
      <point x="860" y="152"/>
      <point x="860" y="152"/>
    </contour>
    <contour>
      <point x="205" y="1292" type="qcurve" smooth="yes"/>
      <point x="164" y="1292"/>
      <point x="164" y="1292"/>
      <point x="164" y="1330" type="qcurve"/>
      <point x="164" y="1368"/>
      <point x="164" y="1368"/>
      <point x="205" y="1368" type="qcurve" smooth="yes"/>
      <point x="246" y="1368"/>
      <point x="246" y="1368"/>
      <point x="246" y="1330" type="qcurve"/>
      <point x="246" y="1292"/>
      <point x="246" y="1292"/>
    </contour>
    <contour>
      <point x="1439" y="1277" type="qcurve" smooth="yes"/>
      <point x="1398" y="1277"/>
      <point x="1398" y="1277"/>
      <point x="1398" y="1330" type="qcurve"/>
      <point x="1398" y="1368"/>
      <point x="1398" y="1368"/>
      <point x="1439" y="1368" type="qcurve" smooth="yes"/>
      <point x="1480" y="1368"/>
      <point x="1480" y="1368"/>
      <point x="1480" y="1330" type="qcurve"/>
      <point x="1480" y="1277"/>
      <point x="1480" y="1277"/>
    </contour>
    <component base="BaseTerminal" xOffset="-82"/>
    <component base="WaistElement" xOffset="-82"/>
    <component base="MidStemBot" xOffset="-82"/>
    <component base="BaseTerminal" xOffset="1070"/>
    <component base="WaistElement" xOffset="1070"/>
    <component base="MidStemBot" xOffset="1070"/>
    <component base="CCWWaist" xScale="0.9063077870366499" xyScale="0.42261826174069944" yxScale="-0.42261826174069944" yScale="0.9063077870366499" xOffset="626" yOffset="-116"/>
    <component base="CWWaist" xScale="0.9063077870366499" xyScale="-0.42261826174069944" yxScale="0.42261826174069944" yScale="0.9063077870366499" xOffset="561" yOffset="96"/>
  </outline>
</glyph>
<glyph name="N" format="1">
  <advance width="1516"/>
  <unicode hex="004E"/>
  <outline>
    <contour>
      <point x="286" y="987" type="qcurve"/>
      <point x="246" y="987"/>
      <point x="246" y="987"/>
      <point x="246" y="987" type="qcurve"/>
      <point x="246" y="987"/>
      <point x="246" y="989"/>
      <point x="246" y="989" type="qcurve"/>
      <point x="246" y="989"/>
      <point x="246" y="989"/>
      <point x="288" y="989" type="qcurve"/>
      <point x="328" y="989"/>
      <point x="328" y="989"/>
      <point x="328" y="989" type="qcurve"/>
      <point x="328" y="989"/>
      <point x="328" y="988"/>
      <point x="328" y="988" type="qcurve"/>
      <point x="328" y="988"/>
      <point x="328" y="987"/>
      <point x="328" y="987" type="qcurve"/>
      <point x="328" y="987"/>
      <point x="328" y="987"/>
    </contour>
    <contour>
      <point x="587" y="943" type="qcurve"/>
      <point x="556" y="914"/>
      <point x="556" y="914"/>
      <point x="556" y="914" type="qcurve"/>
      <point x="556" y="914"/>
      <point x="553" y="918"/>
      <point x="553" y="918" type="qcurve"/>
      <point x="553" y="918"/>
      <point x="553" y="918"/>
      <point x="553" y="918" type="qcurve"/>
      <point x="553" y="918"/>
      <point x="553" y="918"/>
      <point x="584" y="946" type="qcurve"/>
      <point x="613" y="973"/>
      <point x="613" y="973"/>
      <point x="613" y="973" type="qcurve"/>
      <point x="613" y="973"/>
      <point x="616" y="970"/>
      <point x="616" y="970" type="qcurve"/>
      <point x="616" y="970"/>
      <point x="616" y="970"/>
    </contour>
    <contour>
      <point x="936" y="423" type="qcurve"/>
      <point x="903" y="396"/>
      <point x="904" y="393"/>
      <point x="903" y="396" type="qcurve"/>
      <point x="903" y="396"/>
      <point x="900" y="400"/>
      <point x="900" y="400" type="qcurve"/>
      <point x="900" y="400"/>
      <point x="900" y="400"/>
      <point x="930" y="425" type="qcurve"/>
      <point x="962" y="451"/>
      <point x="962" y="451"/>
      <point x="962" y="451" type="qcurve"/>
      <point x="962" y="451"/>
      <point x="965" y="447"/>
      <point x="965" y="447" type="qcurve"/>
      <point x="965" y="447"/>
      <point x="965" y="447"/>
      <point x="965" y="447" type="qcurve"/>
      <point x="965" y="447"/>
      <point x="965" y="447"/>
    </contour>
    <contour>
      <point x="1223" y="379" type="qcurve"/>
      <point x="1188" y="379"/>
      <point x="1188" y="379"/>
      <point x="1188" y="379" type="qcurve"/>
      <point x="1188" y="379"/>
      <point x="1188" y="380"/>
      <point x="1188" y="380" type="qcurve"/>
      <point x="1188" y="380"/>
      <point x="1188" y="381"/>
      <point x="1188" y="381" type="qcurve"/>
      <point x="1188" y="381"/>
      <point x="1188" y="381"/>
      <point x="1230" y="381" type="qcurve"/>
      <point x="1270" y="381"/>
      <point x="1270" y="381"/>
      <point x="1270" y="381" type="qcurve"/>
      <point x="1270" y="381"/>
      <point x="1270" y="379"/>
      <point x="1270" y="379" type="qcurve"/>
      <point x="1270" y="379"/>
      <point x="1270" y="379"/>
    </contour>
    <contour>
      <point x="204" y="987" type="qcurve"/>
      <point x="164" y="987"/>
      <point x="164" y="987"/>
      <point x="164" y="987" type="qcurve"/>
      <point x="164" y="987"/>
      <point x="164" y="989"/>
      <point x="164" y="989" type="qcurve"/>
      <point x="164" y="989"/>
      <point x="164" y="989"/>
      <point x="204" y="989" type="qcurve"/>
      <point x="246" y="989"/>
      <point x="246" y="989"/>
      <point x="246" y="989" type="qcurve"/>
      <point x="246" y="989"/>
      <point x="246" y="987"/>
      <point x="246" y="987" type="qcurve"/>
      <point x="246" y="987"/>
      <point x="246" y="987"/>
    </contour>
    <contour>
      <point x="526" y="887" type="qcurve"/>
      <point x="496" y="859"/>
      <point x="496" y="859"/>
      <point x="496" y="859" type="qcurve"/>
      <point x="496" y="859"/>
      <point x="493" y="863"/>
      <point x="493" y="863" type="qcurve"/>
      <point x="493" y="863"/>
      <point x="493" y="863"/>
      <point x="525" y="892" type="qcurve"/>
      <point x="553" y="918"/>
      <point x="553" y="918"/>
      <point x="553" y="918" type="qcurve"/>
      <point x="553" y="918"/>
      <point x="556" y="914"/>
      <point x="556" y="914" type="qcurve"/>
      <point x="556" y="914"/>
      <point x="556" y="914"/>
    </contour>
    <contour>
      <point x="995" y="472" type="qcurve"/>
      <point x="995" y="472"/>
      <point x="995" y="472"/>
      <point x="965" y="447" type="qcurve"/>
      <point x="965" y="447"/>
      <point x="962" y="451"/>
      <point x="962" y="451" type="qcurve"/>
      <point x="962" y="451"/>
      <point x="962" y="451"/>
      <point x="992" y="476" type="qcurve"/>
      <point x="1025" y="503"/>
      <point x="1025" y="503"/>
      <point x="1025" y="503" type="qcurve"/>
      <point x="1025" y="503"/>
      <point x="1028" y="499"/>
      <point x="1028" y="499" type="qcurve"/>
      <point x="995" y="472"/>
      <point x="995" y="472"/>
    </contour>
    <contour>
      <point x="1311" y="379" type="qcurve"/>
      <point x="1270" y="379"/>
      <point x="1270" y="379"/>
      <point x="1270" y="379" type="qcurve"/>
      <point x="1270" y="379"/>
      <point x="1270" y="381"/>
      <point x="1270" y="381" type="qcurve"/>
      <point x="1270" y="381"/>
      <point x="1270" y="381"/>
      <point x="1312" y="381" type="qcurve"/>
      <point x="1352" y="381"/>
      <point x="1352" y="381"/>
      <point x="1352" y="381" type="qcurve"/>
      <point x="1352" y="381"/>
      <point x="1352" y="379"/>
      <point x="1352" y="379" type="qcurve"/>
      <point x="1352" y="379"/>
      <point x="1352" y="379"/>
    </contour>
    <contour>
      <point x="205" y="988" type="qcurve" smooth="yes"/>
      <point x="164" y="988"/>
      <point x="164" y="988"/>
      <point x="164" y="989" type="qcurve"/>
      <point x="164" y="989"/>
      <point x="164" y="989"/>
      <point x="205" y="989" type="qcurve" smooth="yes"/>
      <point x="246" y="989"/>
      <point x="246" y="989"/>
      <point x="246" y="989" type="qcurve"/>
      <point x="246" y="988"/>
      <point x="246" y="988"/>
    </contour>
    <contour>
      <point x="1311" y="379" type="qcurve" smooth="yes"/>
      <point x="1270" y="379"/>
      <point x="1270" y="379"/>
      <point x="1270" y="379" type="qcurve"/>
      <point x="1270" y="380"/>
      <point x="1270" y="380"/>
      <point x="1311" y="380" type="qcurve" smooth="yes"/>
      <point x="1352" y="380"/>
      <point x="1352" y="380"/>
      <point x="1352" y="379" type="qcurve"/>
      <point x="1352" y="379"/>
      <point x="1352" y="379"/>
    </contour>
    <component base="BaseTerminal" xOffset="-82"/>
    <component base="TopTerminalV3" xOffset="942"/>
    <component base="MidStemBot" xOffset="-82"/>
    <component base="MidStemTop" xOffset="942"/>
    <component base="WaistElement" xOffset="-82"/>
    <component base="WaistElement" xOffset="942"/>
    <component base="WaistElement" xScale="0.7493523459427383" xyScale="0.6621714744913996" yxScale="-0.6621714744913996" yScale="0.7493523459427383" xOffset="967" yOffset="-46"/>
  </outline>
</glyph>
<glyph name="Q" format="1">
  <advance width="1640"/>
  <unicode hex="0051"/>
  <outline>
    <contour>
      <point x="780" y="-140" type="qcurve"/>
      <point x="738" y="-140"/>
      <point x="738" y="-140"/>
      <point x="738" y="-140" type="qcurve"/>
      <point x="738" y="-140"/>
      <point x="738" y="-139"/>
      <point x="738" y="-139" type="qcurve"/>
      <point x="738" y="-139"/>
      <point x="738" y="-138"/>
      <point x="738" y="-138" type="qcurve"/>
      <point x="738" y="-138"/>
      <point x="738" y="-138"/>
      <point x="779" y="-138" type="qcurve"/>
      <point x="820" y="-138"/>
      <point x="820" y="-138"/>
      <point x="820" y="-138" type="qcurve"/>
      <point x="820" y="-138"/>
      <point x="820" y="-139"/>
      <point x="820" y="-139" type="qcurve"/>
      <point x="820" y="-139"/>
      <point x="820" y="-140"/>
      <point x="820" y="-140" type="qcurve"/>
      <point x="820" y="-140"/>
      <point x="820" y="-140"/>
    </contour>
    <contour>
      <point x="862" y="-140" type="qcurve"/>
      <point x="820" y="-140"/>
      <point x="820" y="-140"/>
      <point x="820" y="-140" type="qcurve"/>
      <point x="820" y="-140"/>
      <point x="820" y="-139"/>
      <point x="820" y="-139" type="qcurve"/>
      <point x="820" y="-139"/>
      <point x="820" y="-138"/>
      <point x="820" y="-138" type="qcurve"/>
      <point x="820" y="-138"/>
      <point x="820" y="-138"/>
      <point x="861" y="-138" type="qcurve"/>
      <point x="902" y="-138"/>
      <point x="902" y="-138"/>
      <point x="902" y="-138" type="qcurve"/>
      <point x="902" y="-138"/>
      <point x="902" y="-139"/>
      <point x="902" y="-139" type="qcurve"/>
      <point x="902" y="-139"/>
      <point x="902" y="-140"/>
      <point x="902" y="-140" type="qcurve"/>
      <point x="902" y="-140"/>
      <point x="902" y="-140"/>
    </contour>
    <component base="O"/>
    <component base="BaseTerminal" xOffset="492" yOffset="-414"/>
  </outline>
</glyph>
<glyph name="R" format="1">
  <advance width="994"/>
  <unicode hex="0052"/>
  <outline>
    <contour>
      <point x="205" y="307" type="qcurve" smooth="yes"/>
      <point x="164" y="307"/>
      <point x="164" y="307"/>
      <point x="164" y="307" type="qcurve"/>
      <point x="164" y="307"/>
      <point x="164" y="308"/>
      <point x="164" y="308" type="qcurve"/>
      <point x="164" y="308"/>
      <point x="164" y="309"/>
      <point x="164" y="309" type="qcurve"/>
      <point x="164" y="309"/>
      <point x="164" y="309"/>
      <point x="205" y="309" type="qcurve" smooth="yes"/>
      <point x="246" y="309"/>
      <point x="246" y="309"/>
      <point x="246" y="309" type="qcurve"/>
      <point x="246" y="309"/>
      <point x="246" y="308"/>
      <point x="246" y="308" type="qcurve"/>
      <point x="246" y="308"/>
      <point x="246" y="307"/>
      <point x="246" y="307" type="qcurve"/>
      <point x="246" y="307"/>
      <point x="246" y="307"/>
    </contour>
    <contour>
      <point x="205" y="915" type="qcurve" smooth="yes"/>
      <point x="164" y="915"/>
      <point x="164" y="915"/>
      <point x="164" y="915" type="qcurve"/>
      <point x="164" y="915"/>
      <point x="164" y="915"/>
      <point x="164" y="916" type="qcurve"/>
      <point x="164" y="916"/>
      <point x="164" y="917"/>
      <point x="164" y="917" type="qcurve"/>
      <point x="164" y="917"/>
      <point x="164" y="917"/>
      <point x="205" y="917" type="qcurve" smooth="yes"/>
      <point x="246" y="917"/>
      <point x="246" y="917"/>
      <point x="246" y="917" type="qcurve"/>
      <point x="246" y="917"/>
      <point x="246" y="916"/>
      <point x="246" y="916" type="qcurve"/>
      <point x="246" y="915"/>
      <point x="246" y="915"/>
      <point x="246" y="915" type="qcurve"/>
      <point x="246" y="915"/>
      <point x="246" y="915"/>
    </contour>
    <contour>
      <point x="287" y="307" type="qcurve" smooth="yes"/>
      <point x="246" y="307"/>
      <point x="246" y="307"/>
      <point x="246" y="307" type="qcurve"/>
      <point x="246" y="307"/>
      <point x="246" y="308"/>
      <point x="246" y="308" type="qcurve"/>
      <point x="246" y="308"/>
      <point x="246" y="309"/>
      <point x="246" y="309" type="qcurve"/>
      <point x="246" y="309"/>
      <point x="246" y="309"/>
      <point x="287" y="309" type="qcurve" smooth="yes"/>
      <point x="328" y="309"/>
      <point x="328" y="309"/>
      <point x="328" y="309" type="qcurve"/>
      <point x="328" y="309"/>
      <point x="328" y="308"/>
      <point x="328" y="308" type="qcurve"/>
      <point x="328" y="308"/>
      <point x="328" y="307"/>
      <point x="328" y="307" type="qcurve"/>
      <point x="328" y="307"/>
      <point x="328" y="307"/>
    </contour>
    <contour>
      <point x="287" y="915" type="qcurve" smooth="yes"/>
      <point x="246" y="915"/>
      <point x="246" y="915"/>
      <point x="246" y="915" type="qcurve"/>
      <point x="246" y="915"/>
      <point x="246" y="916"/>
      <point x="246" y="916" type="qcurve"/>
      <point x="246" y="916"/>
      <point x="246" y="917"/>
      <point x="246" y="917" type="qcurve"/>
      <point x="246" y="917"/>
      <point x="246" y="917"/>
      <point x="287" y="917" type="qcurve" smooth="yes"/>
      <point x="328" y="917"/>
      <point x="328" y="917"/>
      <point x="328" y="917" type="qcurve"/>
      <point x="328" y="917"/>
      <point x="328" y="916"/>
      <point x="328" y="916" type="qcurve"/>
      <point x="328" y="915"/>
      <point x="328" y="915"/>
      <point x="328" y="915" type="qcurve"/>
      <point x="328" y="915"/>
      <point x="328" y="915"/>
    </contour>
    <contour>
      <point x="399" y="464" type="qcurve"/>
      <point x="399" y="464"/>
      <point x="399" y="464"/>
      <point x="388" y="503" type="qcurve"/>
      <point x="378" y="539"/>
      <point x="378" y="539"/>
      <point x="378" y="539" type="qcurve"/>
      <point x="378" y="539"/>
      <point x="381" y="539"/>
      <point x="381" y="539" type="qcurve"/>
      <point x="381" y="539"/>
      <point x="384" y="539"/>
      <point x="384" y="539" type="qcurve"/>
      <point x="384" y="539"/>
      <point x="384" y="539"/>
      <point x="394" y="505" type="qcurve"/>
      <point x="406" y="464"/>
      <point x="406" y="464"/>
      <point x="406" y="464" type="qcurve"/>
      <point x="406" y="464"/>
      <point x="402" y="464"/>
      <point x="402" y="464" type="qcurve"/>
      <point x="402" y="464"/>
      <point x="399" y="464"/>
    </contour>
    <contour>
      <point x="378" y="539" type="qcurve"/>
      <point x="378" y="539"/>
      <point x="378" y="539"/>
      <point x="367" y="577" type="qcurve"/>
      <point x="356" y="614"/>
      <point x="356" y="614"/>
      <point x="356" y="614" type="qcurve"/>
      <point x="356" y="614"/>
      <point x="360" y="614"/>
      <point x="360" y="614" type="qcurve"/>
      <point x="360" y="614"/>
      <point x="363" y="614"/>
      <point x="363" y="614" type="qcurve"/>
      <point x="363" y="614"/>
      <point x="363" y="614"/>
      <point x="373" y="578" type="qcurve"/>
      <point x="384" y="539"/>
      <point x="384" y="539"/>
      <point x="384" y="539" type="qcurve"/>
      <point x="384" y="539"/>
      <point x="381" y="539"/>
      <point x="381" y="539" type="qcurve"/>
      <point x="381" y="539"/>
      <point x="381" y="539"/>
    </contour>
    <contour>
      <point x="579" y="1190" type="qcurve"/>
      <point x="554" y="1160"/>
      <point x="554" y="1160"/>
      <point x="554" y="1160" type="qcurve"/>
      <point x="554" y="1160"/>
      <point x="552" y="1161"/>
      <point x="552" y="1161" type="qcurve"/>
      <point x="552" y="1161"/>
      <point x="550" y="1162"/>
      <point x="550" y="1162" type="qcurve"/>
      <point x="550" y="1162"/>
      <point x="550" y="1162"/>
      <point x="576" y="1193" type="qcurve"/>
      <point x="600" y="1223"/>
      <point x="600" y="1223"/>
      <point x="600" y="1223" type="qcurve"/>
      <point x="600" y="1223"/>
      <point x="600" y="1223"/>
      <point x="602" y="1222" type="qcurve"/>
      <point x="602" y="1222"/>
      <point x="604" y="1221"/>
      <point x="604" y="1221" type="qcurve"/>
      <point x="604" y="1221"/>
      <point x="604" y="1221"/>
    </contour>
    <contour>
      <point x="628" y="1251" type="qcurve"/>
      <point x="604" y="1221"/>
      <point x="604" y="1221"/>
      <point x="604" y="1221" type="qcurve"/>
      <point x="604" y="1221"/>
      <point x="602" y="1222"/>
      <point x="602" y="1222" type="qcurve"/>
      <point x="600" y="1223"/>
      <point x="600" y="1223"/>
      <point x="600" y="1223" type="qcurve"/>
      <point x="600" y="1223"/>
      <point x="600" y="1223"/>
      <point x="625" y="1254" type="qcurve"/>
      <point x="652" y="1289"/>
      <point x="652" y="1289"/>
      <point x="652" y="1289" type="qcurve"/>
      <point x="652" y="1289"/>
      <point x="654" y="1288"/>
      <point x="654" y="1288" type="qcurve"/>
      <point x="654" y="1288"/>
      <point x="656" y="1287"/>
      <point x="656" y="1287" type="qcurve"/>
      <point x="656" y="1287"/>
      <point x="656" y="1287"/>
    </contour>
    <contour>
      <point x="652" y="305" type="qcurve"/>
      <point x="622" y="282"/>
      <point x="622" y="282"/>
      <point x="622" y="282" type="qcurve"/>
      <point x="620" y="284"/>
      <point x="620" y="284"/>
      <point x="619" y="286" type="qcurve"/>
      <point x="619" y="286"/>
      <point x="619" y="286"/>
      <point x="649" y="309" type="qcurve"/>
      <point x="681" y="333"/>
      <point x="681" y="333"/>
      <point x="681" y="333" type="qcurve"/>
      <point x="682" y="331"/>
      <point x="682" y="331"/>
      <point x="684" y="329" type="qcurve"/>
      <point x="684" y="329"/>
      <point x="684" y="329"/>
    </contour>
    <contour>
      <point x="711" y="713" type="qcurve"/>
      <point x="711" y="713"/>
      <point x="711" y="713"/>
      <point x="677" y="731" type="qcurve"/>
      <point x="637" y="751"/>
      <point x="637" y="751"/>
      <point x="637" y="751" type="qcurve"/>
      <point x="638" y="753"/>
      <point x="638" y="753"/>
      <point x="639" y="754" type="qcurve"/>
      <point x="639" y="754"/>
      <point x="639" y="754"/>
      <point x="678" y="735" type="qcurve"/>
      <point x="713" y="717"/>
      <point x="713" y="717"/>
      <point x="713" y="717" type="qcurve"/>
      <point x="712" y="715"/>
      <point x="712" y="715"/>
    </contour>
    <contour>
      <point x="716" y="353" type="qcurve"/>
      <point x="684" y="329"/>
      <point x="684" y="329"/>
      <point x="684" y="329" type="qcurve"/>
      <point x="682" y="331"/>
      <point x="682" y="331"/>
      <point x="681" y="333" type="qcurve"/>
      <point x="681" y="333"/>
      <point x="681" y="333"/>
      <point x="711" y="356" type="qcurve"/>
      <point x="741" y="379"/>
      <point x="741" y="379"/>
      <point x="741" y="379" type="qcurve"/>
      <point x="742" y="377"/>
      <point x="742" y="377"/>
      <point x="744" y="375" type="qcurve"/>
      <point x="744" y="375"/>
      <point x="744" y="375"/>
    </contour>
    <contour>
      <point x="786" y="673" type="qcurve"/>
      <point x="786" y="673"/>
      <point x="786" y="673"/>
      <point x="746" y="695" type="qcurve"/>
      <point x="711" y="713"/>
      <point x="711" y="713"/>
      <point x="711" y="713" type="qcurve"/>
      <point x="712" y="715"/>
      <point x="712" y="715"/>
      <point x="713" y="717" type="qcurve"/>
      <point x="713" y="717"/>
      <point x="713" y="717"/>
      <point x="749" y="698" type="qcurve"/>
      <point x="789" y="677"/>
      <point x="789" y="677"/>
      <point x="789" y="677" type="qcurve"/>
      <point x="788" y="675"/>
      <point x="788" y="675"/>
    </contour>
    <contour>
      <point x="481" y="554" type="qcurve"/>
      <point x="442" y="544"/>
      <point x="442" y="544"/>
      <point x="419" y="579" type="qcurve"/>
      <point x="395" y="616"/>
      <point x="395" y="616"/>
      <point x="435" y="623" type="qcurve"/>
      <point x="472" y="634"/>
      <point x="471" y="634"/>
      <point x="490" y="606" type="qcurve" smooth="yes"/>
      <point x="517" y="567"/>
      <point x="517" y="567"/>
    </contour>
    <contour>
      <point x="525" y="486" type="qcurve"/>
      <point x="486" y="476"/>
      <point x="486" y="476"/>
      <point x="464" y="510" type="qcurve"/>
      <point x="442" y="544"/>
      <point x="442" y="544"/>
      <point x="481" y="554" type="qcurve"/>
      <point x="517" y="567"/>
      <point x="517" y="567"/>
      <point x="538" y="534" type="qcurve"/>
      <point x="563" y="499"/>
      <point x="563" y="499"/>
    </contour>
    <contour>
      <point x="551" y="581" type="qcurve"/>
      <point x="517" y="567"/>
      <point x="517" y="567"/>
      <point x="490" y="606" type="qcurve" smooth="yes"/>
      <point x="471" y="634"/>
      <point x="472" y="634"/>
      <point x="507" y="646" type="qcurve"/>
      <point x="539" y="663"/>
      <point x="539" y="663"/>
      <point x="562" y="630" type="qcurve"/>
      <point x="584" y="599"/>
      <point x="584" y="599"/>
    </contour>
    <contour>
      <point x="599" y="514" type="qcurve"/>
      <point x="563" y="499"/>
      <point x="563" y="499"/>
      <point x="538" y="534" type="qcurve"/>
      <point x="517" y="567"/>
      <point x="517" y="567"/>
      <point x="551" y="581" type="qcurve"/>
      <point x="584" y="599"/>
      <point x="584" y="599"/>
      <point x="607" y="565" type="qcurve"/>
      <point x="632" y="531"/>
      <point x="632" y="531"/>
    </contour>
    <contour>
      <point x="732" y="908" type="qcurve"/>
      <point x="690" y="908"/>
      <point x="690" y="908"/>
      <point x="690" y="913" type="qcurve"/>
      <point x="690" y="918"/>
      <point x="690" y="918"/>
      <point x="732" y="918" type="qcurve" smooth="yes"/>
      <point x="773" y="918"/>
      <point x="773" y="918"/>
      <point x="773" y="913" type="qcurve"/>
      <point x="773" y="908"/>
      <point x="773" y="908"/>
    </contour>
    <contour>
      <point x="732" y="918" type="qcurve" smooth="yes"/>
      <point x="690" y="918"/>
      <point x="690" y="918"/>
      <point x="690" y="923" type="qcurve" smooth="yes"/>
      <point x="690" y="928"/>
      <point x="690" y="928"/>
      <point x="732" y="928" type="qcurve" smooth="yes"/>
      <point x="773" y="928"/>
      <point x="773" y="928"/>
      <point x="773" y="923" type="qcurve"/>
      <point x="773" y="918"/>
      <point x="773" y="918"/>
    </contour>
    <contour>
      <point x="815" y="908" type="qcurve"/>
      <point x="773" y="908"/>
      <point x="773" y="908"/>
      <point x="773" y="913" type="qcurve"/>
      <point x="773" y="918"/>
      <point x="773" y="918"/>
      <point x="815" y="918" type="qcurve" smooth="yes"/>
      <point x="857" y="918"/>
      <point x="857" y="918"/>
      <point x="857" y="913" type="qcurve"/>
      <point x="857" y="908"/>
      <point x="857" y="908"/>
    </contour>
    <contour>
      <point x="815" y="918" type="qcurve" smooth="yes"/>
      <point x="773" y="918"/>
      <point x="773" y="918"/>
      <point x="773" y="923" type="qcurve"/>
      <point x="773" y="928"/>
      <point x="773" y="928"/>
      <point x="815" y="928" type="qcurve" smooth="yes"/>
      <point x="857" y="928"/>
      <point x="857" y="928"/>
      <point x="857" y="923" type="qcurve"/>
      <point x="857" y="918"/>
      <point x="857" y="918"/>
    </contour>
    <component base="WaistElement" xOffset="-82" yOffset="-146"/>
    <component base="BaseTerminal" xOffset="-82"/>
    <component base="TopElementV2" xOffset="-82"/>
    <component base="CCWTerm" xScale="-0.819152044289" xyScale="-0.573576436351" yxScale="0.573576436351" yScale="-0.819152044289" xOffset="319" yOffset="1292"/>
  </outline>
</glyph>
<glyph name="S" format="1">
  <advance width="812"/>
  <unicode hex="0053"/>
  <outline>
    <contour>
      <point x="113" y="828" type="qcurve"/>
      <point x="111" y="830"/>
      <point x="111" y="830"/>
      <point x="109" y="832" type="qcurve"/>
      <point x="109" y="832"/>
      <point x="109" y="832"/>
      <point x="150" y="852" type="qcurve"/>
      <point x="186" y="871"/>
      <point x="186" y="871"/>
      <point x="186" y="871" type="qcurve"/>
      <point x="187" y="869"/>
      <point x="187" y="869"/>
      <point x="188" y="867" type="qcurve"/>
      <point x="188" y="867"/>
      <point x="188" y="867"/>
      <point x="153" y="849" type="qcurve"/>
      <point x="113" y="828"/>
      <point x="113" y="828"/>
    </contour>
    <contour>
      <point x="188" y="867" type="qcurve"/>
      <point x="187" y="869"/>
      <point x="187" y="869"/>
      <point x="186" y="871" type="qcurve"/>
      <point x="186" y="871"/>
      <point x="186" y="871"/>
      <point x="221" y="889" type="qcurve"/>
      <point x="258" y="910"/>
      <point x="258" y="910"/>
      <point x="258" y="910" type="qcurve"/>
      <point x="259" y="909"/>
      <point x="259" y="909"/>
      <point x="261" y="907" type="qcurve"/>
      <point x="261" y="907"/>
      <point x="261" y="907"/>
      <point x="224" y="886" type="qcurve"/>
      <point x="188" y="867"/>
      <point x="188" y="867"/>
    </contour>
    <contour>
      <point x="212" y="1294" type="qcurve"/>
      <point x="191" y="1321"/>
      <point x="191" y="1321"/>
      <point x="191" y="1321" type="qcurve"/>
      <point x="192" y="1323"/>
      <point x="192" y="1323"/>
      <point x="194" y="1324" type="qcurve"/>
      <point x="194" y="1324"/>
      <point x="194" y="1324"/>
      <point x="215" y="1297" type="qcurve"/>
      <point x="240" y="1266"/>
      <point x="240" y="1266"/>
      <point x="240" y="1266" type="qcurve"/>
      <point x="238" y="1265"/>
      <point x="238" y="1265"/>
      <point x="237" y="1263" type="qcurve"/>
      <point x="237" y="1263"/>
      <point x="237" y="1263"/>
    </contour>
    <contour>
      <point x="260" y="1234" type="qcurve"/>
      <point x="237" y="1263"/>
      <point x="237" y="1263"/>
      <point x="237" y="1263" type="qcurve"/>
      <point x="238" y="1265"/>
      <point x="238" y="1265"/>
      <point x="240" y="1266" type="qcurve"/>
      <point x="240" y="1266"/>
      <point x="240" y="1266"/>
      <point x="263" y="1237" type="qcurve"/>
      <point x="286" y="1210"/>
      <point x="286" y="1210"/>
      <point x="286" y="1210" type="qcurve"/>
      <point x="284" y="1209"/>
      <point x="284" y="1209"/>
      <point x="282" y="1207" type="qcurve"/>
      <point x="282" y="1207"/>
      <point x="282" y="1207"/>
    </contour>
    <contour>
      <point x="581" y="110" type="qcurve"/>
      <point x="581" y="110"/>
      <point x="581" y="110"/>
      <point x="557" y="140" type="qcurve"/>
      <point x="534" y="169"/>
      <point x="534" y="169"/>
      <point x="534" y="169" type="qcurve"/>
      <point x="536" y="171"/>
      <point x="536" y="171"/>
      <point x="538" y="172" type="qcurve"/>
      <point x="538" y="172"/>
      <point x="538" y="172"/>
      <point x="560" y="143" type="qcurve"/>
      <point x="585" y="112"/>
      <point x="585" y="112"/>
      <point x="585" y="112" type="qcurve"/>
      <point x="583" y="111"/>
      <point x="583" y="111"/>
    </contour>
    <contour>
      <point x="628" y="51" type="qcurve"/>
      <point x="628" y="51"/>
      <point x="628" y="51"/>
      <point x="605" y="80" type="qcurve"/>
      <point x="581" y="110"/>
      <point x="581" y="110"/>
      <point x="581" y="110" type="qcurve"/>
      <point x="583" y="111"/>
      <point x="583" y="111"/>
      <point x="585" y="112" type="qcurve"/>
      <point x="585" y="112"/>
      <point x="585" y="112"/>
      <point x="609" y="82" type="qcurve"/>
      <point x="632" y="53"/>
      <point x="632" y="53"/>
      <point x="632" y="53" type="qcurve"/>
      <point x="630" y="52"/>
      <point x="630" y="52"/>
    </contour>
    <contour>
      <point x="611" y="532" type="qcurve"/>
      <point x="568" y="509"/>
      <point x="568" y="509"/>
      <point x="568" y="509" type="qcurve"/>
      <point x="567" y="511"/>
      <point x="567" y="511"/>
      <point x="566" y="512" type="qcurve"/>
      <point x="566" y="512"/>
      <point x="566" y="512"/>
      <point x="609" y="536" type="qcurve"/>
      <point x="643" y="555"/>
      <point x="643" y="555"/>
      <point x="643" y="555" type="qcurve"/>
      <point x="644" y="553"/>
      <point x="644" y="553"/>
      <point x="645" y="551" type="qcurve"/>
      <point x="645" y="551"/>
      <point x="645" y="551"/>
    </contour>
    <contour>
      <point x="679" y="570" type="qcurve"/>
      <point x="645" y="551"/>
      <point x="645" y="551"/>
      <point x="645" y="551" type="qcurve"/>
      <point x="644" y="553"/>
      <point x="644" y="553"/>
      <point x="643" y="555" type="qcurve"/>
      <point x="643" y="555"/>
      <point x="643" y="555"/>
      <point x="677" y="574" type="qcurve"/>
      <point x="709" y="593"/>
      <point x="709" y="593"/>
      <point x="709" y="593" type="qcurve"/>
      <point x="711" y="591"/>
      <point x="711" y="591"/>
      <point x="712" y="589" type="qcurve"/>
      <point x="712" y="589"/>
      <point x="712" y="589"/>
    </contour>
    <contour>
      <point x="89" y="1038" type="qcurve"/>
      <point x="49" y="1038"/>
      <point x="49" y="1038"/>
      <point x="49" y="1043" type="qcurve" smooth="yes"/>
      <point x="49" y="1048"/>
      <point x="49" y="1048"/>
      <point x="89" y="1048" type="qcurve" smooth="yes"/>
      <point x="128" y="1048"/>
      <point x="128" y="1048"/>
      <point x="128" y="1043" type="qcurve"/>
      <point x="128" y="1038"/>
      <point x="128" y="1038"/>
    </contour>
    <contour>
      <point x="89" y="1048" type="qcurve" smooth="yes"/>
      <point x="49" y="1048"/>
      <point x="49" y="1048"/>
      <point x="49" y="1053" type="qcurve" smooth="yes"/>
      <point x="49" y="1058"/>
      <point x="49" y="1058"/>
      <point x="89" y="1058" type="qcurve" smooth="yes"/>
      <point x="128" y="1058"/>
      <point x="128" y="1058"/>
      <point x="128" y="1053" type="qcurve"/>
      <point x="128" y="1048"/>
      <point x="128" y="1048"/>
    </contour>
    <contour>
      <point x="167" y="1038" type="qcurve"/>
      <point x="128" y="1038"/>
      <point x="128" y="1038"/>
      <point x="128" y="1043" type="qcurve"/>
      <point x="128" y="1048"/>
      <point x="128" y="1048"/>
      <point x="167" y="1048" type="qcurve" smooth="yes"/>
      <point x="207" y="1048"/>
      <point x="207" y="1048"/>
      <point x="207" y="1043" type="qcurve"/>
      <point x="207" y="1038"/>
      <point x="207" y="1038"/>
    </contour>
    <contour>
      <point x="167" y="1048" type="qcurve" smooth="yes"/>
      <point x="128" y="1048"/>
      <point x="128" y="1048"/>
      <point x="128" y="1053" type="qcurve"/>
      <point x="128" y="1058"/>
      <point x="128" y="1058"/>
      <point x="167" y="1058" type="qcurve" smooth="yes"/>
      <point x="207" y="1058"/>
      <point x="207" y="1058"/>
      <point x="207" y="1053" type="qcurve"/>
      <point x="207" y="1048"/>
      <point x="207" y="1048"/>
    </contour>
    <contour>
      <point x="248" y="-37" type="qcurve"/>
      <point x="245" y="-36"/>
      <point x="245" y="-36"/>
      <point x="245" y="-1" type="qcurve"/>
      <point x="245" y="35"/>
      <point x="245" y="35"/>
      <point x="249" y="35" type="qcurve"/>
      <point x="252" y="35"/>
      <point x="252" y="35"/>
      <point x="252" y="1" type="qcurve"/>
      <point x="252" y="-37"/>
      <point x="252" y="-37"/>
    </contour>
    <contour>
      <point x="249" y="35" type="qcurve"/>
      <point x="245" y="35"/>
      <point x="245" y="35"/>
      <point x="245" y="72" type="qcurve"/>
      <point x="245" y="110"/>
      <point x="245" y="110"/>
      <point x="249" y="109" type="qcurve"/>
      <point x="252" y="108"/>
      <point x="252" y="108"/>
      <point x="252" y="70" type="qcurve"/>
      <point x="252" y="35"/>
      <point x="252" y="35"/>
    </contour>
    <contour>
      <point x="311" y="-39" type="qcurve"/>
      <point x="302" y="-39"/>
      <point x="302" y="-39"/>
      <point x="302" y="-1" type="qcurve"/>
      <point x="302" y="33"/>
      <point x="302" y="33"/>
      <point x="312" y="33" type="qcurve"/>
      <point x="322" y="33"/>
      <point x="322" y="33"/>
      <point x="322" y="-1" type="qcurve"/>
      <point x="322" y="-39"/>
      <point x="322" y="-39"/>
    </contour>
    <contour>
      <point x="312" y="33" type="qcurve"/>
      <point x="302" y="33"/>
      <point x="302" y="33"/>
      <point x="302" y="68" type="qcurve"/>
      <point x="302" y="106"/>
      <point x="302" y="106"/>
      <point x="312" y="106" type="qcurve"/>
      <point x="322" y="106"/>
      <point x="322" y="106"/>
      <point x="322" y="68" type="qcurve"/>
      <point x="322" y="33"/>
      <point x="322" y="33"/>
    </contour>
    <contour>
      <point x="332" y="-39" type="qcurve"/>
      <point x="322" y="-39"/>
      <point x="322" y="-39"/>
      <point x="322" y="-1" type="qcurve"/>
      <point x="322" y="33"/>
      <point x="322" y="33"/>
      <point x="332" y="33" type="qcurve"/>
      <point x="342" y="33"/>
      <point x="342" y="33"/>
      <point x="342" y="-1" type="qcurve"/>
      <point x="342" y="-39"/>
      <point x="342" y="-39"/>
    </contour>
    <contour>
      <point x="332" y="33" type="qcurve"/>
      <point x="322" y="33"/>
      <point x="322" y="33"/>
      <point x="322" y="68" type="qcurve"/>
      <point x="322" y="106"/>
      <point x="322" y="106"/>
      <point x="332" y="106" type="qcurve"/>
      <point x="342" y="106"/>
      <point x="342" y="106"/>
      <point x="342" y="68" type="qcurve"/>
      <point x="342" y="33"/>
      <point x="342" y="33"/>
    </contour>
    <contour>
      <point x="462" y="1260" type="qcurve"/>
      <point x="452" y="1260"/>
      <point x="452" y="1260"/>
      <point x="452" y="1299" type="qcurve"/>
      <point x="452" y="1338"/>
      <point x="452" y="1338"/>
      <point x="462" y="1338" type="qcurve"/>
      <point x="472" y="1338"/>
      <point x="472" y="1338"/>
      <point x="472" y="1299" type="qcurve"/>
      <point x="472" y="1260"/>
      <point x="472" y="1260"/>
    </contour>
    <contour>
      <point x="462" y="1338" type="qcurve"/>
      <point x="452" y="1338"/>
      <point x="452" y="1338"/>
      <point x="452" y="1372" type="qcurve"/>
      <point x="452" y="1409"/>
      <point x="452" y="1409"/>
      <point x="462" y="1409" type="qcurve"/>
      <point x="472" y="1409"/>
      <point x="472" y="1409"/>
      <point x="472" y="1372" type="qcurve"/>
      <point x="472" y="1338"/>
      <point x="472" y="1338"/>
    </contour>
    <contour>
      <point x="482" y="1260" type="qcurve"/>
      <point x="472" y="1260"/>
      <point x="472" y="1260"/>
      <point x="472" y="1299" type="qcurve"/>
      <point x="472" y="1338"/>
      <point x="472" y="1338"/>
      <point x="482" y="1338" type="qcurve"/>
      <point x="492" y="1338"/>
      <point x="492" y="1338"/>
      <point x="492" y="1299" type="qcurve"/>
      <point x="492" y="1259"/>
      <point x="492" y="1259"/>
    </contour>
    <contour>
      <point x="482" y="1338" type="qcurve"/>
      <point x="472" y="1338"/>
      <point x="472" y="1338"/>
      <point x="472" y="1372" type="qcurve"/>
      <point x="472" y="1409"/>
      <point x="472" y="1409"/>
      <point x="483" y="1409" type="qcurve"/>
      <point x="492" y="1409"/>
      <point x="492" y="1409"/>
      <point x="492" y="1372" type="qcurve"/>
      <point x="492" y="1338"/>
      <point x="492" y="1338"/>
    </contour>
    <contour>
      <point x="521" y="1255" type="qcurve"/>
      <point x="517" y="1256"/>
      <point x="517" y="1256"/>
      <point x="517" y="1298" type="qcurve"/>
      <point x="517" y="1333"/>
      <point x="517" y="1333"/>
      <point x="522" y="1333" type="qcurve"/>
      <point x="524" y="1332"/>
      <point x="524" y="1332"/>
      <point x="524" y="1295" type="qcurve"/>
      <point x="524" y="1254"/>
      <point x="524" y="1254"/>
    </contour>
    <contour>
      <point x="522" y="1333" type="qcurve"/>
      <point x="517" y="1333"/>
      <point x="517" y="1333"/>
      <point x="517" y="1372" type="qcurve"/>
      <point x="517" y="1408"/>
      <point x="517" y="1408"/>
      <point x="521" y="1408" type="qcurve"/>
      <point x="524" y="1407"/>
      <point x="524" y="1407"/>
      <point x="524" y="1370" type="qcurve"/>
      <point x="524" y="1332"/>
      <point x="524" y="1332"/>
    </contour>
    <contour>
      <point x="666" y="348" type="qcurve"/>
      <point x="626" y="348"/>
      <point x="626" y="348"/>
      <point x="626" y="356" type="qcurve" smooth="yes"/>
      <point x="626" y="363"/>
      <point x="626" y="363"/>
      <point x="666" y="363" type="qcurve" smooth="yes"/>
      <point x="705" y="363"/>
      <point x="705" y="363"/>
      <point x="705" y="356" type="qcurve"/>
      <point x="705" y="348"/>
      <point x="705" y="348"/>
    </contour>
    <contour>
      <point x="666" y="363" type="qcurve" smooth="yes"/>
      <point x="626" y="363"/>
      <point x="626" y="363"/>
      <point x="626" y="371" type="qcurve" smooth="yes"/>
      <point x="626" y="379"/>
      <point x="626" y="379"/>
      <point x="666" y="379" type="qcurve" smooth="yes"/>
      <point x="705" y="379"/>
      <point x="705" y="379"/>
      <point x="705" y="371" type="qcurve"/>
      <point x="705" y="363"/>
      <point x="705" y="363"/>
    </contour>
    <contour>
      <point x="744" y="348" type="qcurve"/>
      <point x="705" y="348"/>
      <point x="705" y="348"/>
      <point x="705" y="356" type="qcurve"/>
      <point x="705" y="363"/>
      <point x="705" y="363"/>
      <point x="744" y="363" type="qcurve" smooth="yes"/>
      <point x="784" y="363"/>
      <point x="784" y="363"/>
      <point x="784" y="356" type="qcurve"/>
      <point x="784" y="348"/>
      <point x="784" y="348"/>
    </contour>
    <contour>
      <point x="744" y="363" type="qcurve" smooth="yes"/>
      <point x="705" y="363"/>
      <point x="705" y="363"/>
      <point x="705" y="371" type="qcurve"/>
      <point x="705" y="379"/>
      <point x="705" y="379"/>
      <point x="744" y="379" type="qcurve" smooth="yes"/>
      <point x="784" y="379"/>
      <point x="784" y="379"/>
      <point x="784" y="371" type="qcurve"/>
      <point x="784" y="363"/>
      <point x="784" y="363"/>
    </contour>
    <component base="BaseLeftCurvedElement" xOffset="12" yOffset="-10"/>
    <component base="TopCurvedElement" xOffset="305" yOffset="17"/>
    <component base="WaistElement" xScale="0.5000000000000001" xyScale="0.8660254037844386" yxScale="-0.8660254037844386" yScale="0.5000000000000001" xOffset="838" yOffset="86"/>
  </outline>
</glyph>
<glyph name="T" format="1">
  <advance width="1038"/>
  <unicode hex="0054"/>
  <outline>
    <contour>
      <point x="300" y="1216" type="qcurve"/>
      <point x="299" y="1216"/>
      <point x="299" y="1216"/>
      <point x="299" y="1254" type="qcurve"/>
      <point x="299" y="1292"/>
      <point x="299" y="1292"/>
      <point x="300" y="1292" type="qcurve"/>
      <point x="301" y="1292"/>
      <point x="301" y="1292"/>
      <point x="302" y="1292" type="qcurve"/>
      <point x="303" y="1292"/>
      <point x="303" y="1292"/>
      <point x="304" y="1292" type="qcurve"/>
      <point x="305" y="1292"/>
      <point x="305" y="1292"/>
      <point x="305" y="1255" type="qcurve"/>
      <point x="305" y="1216"/>
      <point x="305" y="1216"/>
      <point x="304" y="1216" type="qcurve"/>
      <point x="303" y="1216"/>
      <point x="303" y="1216"/>
      <point x="302" y="1216" type="qcurve"/>
      <point x="301" y="1216"/>
      <point x="301" y="1216"/>
    </contour>
    <contour>
      <point x="300" y="1292" type="qcurve"/>
      <point x="299" y="1292"/>
      <point x="299" y="1292"/>
      <point x="299" y="1330" type="qcurve"/>
      <point x="299" y="1368"/>
      <point x="299" y="1368"/>
      <point x="300" y="1368" type="qcurve"/>
      <point x="301" y="1368"/>
      <point x="301" y="1368"/>
      <point x="302" y="1368" type="qcurve" smooth="yes"/>
      <point x="303" y="1368"/>
      <point x="303" y="1368"/>
      <point x="304" y="1368" type="qcurve"/>
      <point x="305" y="1368"/>
      <point x="305" y="1368"/>
      <point x="305" y="1331" type="qcurve"/>
      <point x="305" y="1292"/>
      <point x="305" y="1292"/>
      <point x="304" y="1292" type="qcurve"/>
      <point x="303" y="1292"/>
      <point x="303" y="1292"/>
      <point x="302" y="1292" type="qcurve"/>
      <point x="301" y="1292"/>
      <point x="301" y="1292"/>
    </contour>
    <contour>
      <point x="730" y="1216" type="qcurve"/>
      <point x="729" y="1216"/>
      <point x="729" y="1216"/>
      <point x="729" y="1254" type="qcurve"/>
      <point x="729" y="1292"/>
      <point x="729" y="1292"/>
      <point x="730" y="1292" type="qcurve"/>
      <point x="731" y="1292"/>
      <point x="731" y="1292"/>
      <point x="732" y="1292" type="qcurve"/>
      <point x="733" y="1292"/>
      <point x="733" y="1292"/>
      <point x="734" y="1292" type="qcurve"/>
      <point x="735" y="1292"/>
      <point x="735" y="1292"/>
      <point x="735" y="1255" type="qcurve"/>
      <point x="735" y="1216"/>
      <point x="735" y="1216"/>
      <point x="734" y="1216" type="qcurve"/>
      <point x="733" y="1216"/>
      <point x="733" y="1216"/>
      <point x="732" y="1216" type="qcurve"/>
      <point x="731" y="1216"/>
      <point x="731" y="1216"/>
    </contour>
    <contour>
      <point x="730" y="1292" type="qcurve"/>
      <point x="729" y="1292"/>
      <point x="729" y="1292"/>
      <point x="729" y="1330" type="qcurve"/>
      <point x="729" y="1368"/>
      <point x="729" y="1368"/>
      <point x="730" y="1368" type="qcurve"/>
      <point x="731" y="1368"/>
      <point x="731" y="1368"/>
      <point x="732" y="1368" type="qcurve" smooth="yes"/>
      <point x="733" y="1368"/>
      <point x="733" y="1368"/>
      <point x="734" y="1368" type="qcurve"/>
      <point x="735" y="1368"/>
      <point x="735" y="1368"/>
      <point x="735" y="1331" type="qcurve"/>
      <point x="735" y="1292"/>
      <point x="735" y="1292"/>
      <point x="734" y="1292" type="qcurve"/>
      <point x="733" y="1292"/>
      <point x="733" y="1292"/>
      <point x="732" y="1292" type="qcurve"/>
      <point x="731" y="1292"/>
      <point x="731" y="1292"/>
    </contour>
    <component base="BaseTerminal" xOffset="191"/>
    <component base="RightTopTerminal" xOffset="618" yOffset="1216"/>
    <component base="LeftTopTerm" xOffset="-236" yOffset="1216"/>
    <component base="WaistElement" xOffset="191"/>
    <component base="TopElementV1" xOffset="191" yOffset="1216"/>
    <component base="MidElement" xOffset="191"/>
  </outline>
</glyph>
<glyph name="U" format="1">
  <advance width="1321"/>
  <unicode hex="0055"/>
  <outline>
    <contour>
      <point x="213" y="182" type="qcurve"/>
      <point x="212" y="184"/>
      <point x="212" y="184"/>
      <point x="212" y="185" type="qcurve"/>
      <point x="211" y="186"/>
      <point x="211" y="186"/>
      <point x="250" y="208" type="qcurve"/>
      <point x="287" y="230"/>
      <point x="287" y="230"/>
      <point x="287" y="229" type="qcurve"/>
      <point x="288" y="228"/>
      <point x="288" y="228"/>
      <point x="289" y="227" type="qcurve"/>
      <point x="289" y="225"/>
      <point x="289" y="225"/>
      <point x="253" y="204" type="qcurve"/>
      <point x="214" y="181"/>
      <point x="214" y="181"/>
    </contour>
    <contour>
      <point x="289" y="227" type="qcurve"/>
      <point x="288" y="228"/>
      <point x="288" y="228"/>
      <point x="287" y="229" type="qcurve"/>
      <point x="287" y="230"/>
      <point x="287" y="230"/>
      <point x="323" y="250" type="qcurve"/>
      <point x="358" y="270"/>
      <point x="358" y="270"/>
      <point x="359" y="269" type="qcurve"/>
      <point x="360" y="267"/>
      <point x="359" y="269"/>
      <point x="360" y="267" type="qcurve"/>
      <point x="361" y="266"/>
      <point x="361" y="266"/>
      <point x="324" y="245" type="qcurve"/>
      <point x="289" y="225"/>
      <point x="289" y="225"/>
    </contour>
    <contour>
      <point x="1109" y="182" type="qcurve"/>
      <point x="1108" y="181"/>
      <point x="1108" y="181"/>
      <point x="1069" y="204" type="qcurve"/>
      <point x="1033" y="225"/>
      <point x="1033" y="225"/>
      <point x="1033" y="227" type="qcurve"/>
      <point x="1034" y="228"/>
      <point x="1034" y="228"/>
      <point x="1035" y="229" type="qcurve"/>
      <point x="1035" y="230"/>
      <point x="1035" y="230"/>
      <point x="1072" y="208" type="qcurve"/>
      <point x="1111" y="186"/>
      <point x="1111" y="186"/>
      <point x="1110" y="185" type="qcurve"/>
      <point x="1110" y="184"/>
      <point x="1110" y="184"/>
    </contour>
    <contour>
      <point x="1033" y="227" type="qcurve"/>
      <point x="1033" y="225"/>
      <point x="1033" y="225"/>
      <point x="998" y="245" type="qcurve"/>
      <point x="961" y="266"/>
      <point x="961" y="266"/>
      <point x="962" y="267" type="qcurve"/>
      <point x="963" y="269"/>
      <point x="962" y="267"/>
      <point x="963" y="269" type="qcurve"/>
      <point x="964" y="270"/>
      <point x="964" y="270"/>
      <point x="999" y="250" type="qcurve"/>
      <point x="1035" y="230"/>
      <point x="1035" y="230"/>
      <point x="1035" y="229" type="qcurve"/>
      <point x="1034" y="228"/>
      <point x="1034" y="228"/>
    </contour>
    <component base="TopTerminalV3" xOffset="-96"/>
    <component base="TopTerminalV3" xOffset="761"/>
    <component base="WaistElement" xOffset="-96"/>
    <component base="WaistElement" xOffset="761"/>
    <component base="MidStemTop" xOffset="-96"/>
    <component base="MidStemTop" xOffset="761"/>
    <component base="RoundWaistElement180" xOffset="579" yOffset="-1"/>
  </outline>
</glyph>
<glyph name="V" format="1">
  <advance width="1280"/>
  <unicode hex="0056"/>
  <outline>
    <contour>
      <point x="447" y="404" type="qcurve"/>
      <point x="411" y="389"/>
      <point x="411" y="389"/>
      <point x="411" y="390" type="qcurve"/>
      <point x="411" y="390"/>
      <point x="410" y="392"/>
      <point x="410" y="392" type="qcurve"/>
      <point x="409" y="394"/>
      <point x="409" y="394"/>
      <point x="444" y="408" type="qcurve"/>
      <point x="481" y="424"/>
      <point x="481" y="424"/>
      <point x="482" y="423" type="qcurve"/>
      <point x="482" y="423"/>
      <point x="482" y="421"/>
      <point x="482" y="421" type="qcurve"/>
      <point x="483" y="420"/>
      <point x="483" y="420"/>
    </contour>
    <contour>
      <point x="518" y="436" type="qcurve"/>
      <point x="483" y="420"/>
      <point x="483" y="420"/>
      <point x="482" y="421" type="qcurve"/>
      <point x="482" y="421"/>
      <point x="482" y="423"/>
      <point x="482" y="423" type="qcurve"/>
      <point x="481" y="424"/>
      <point x="481" y="424"/>
      <point x="517" y="440" type="qcurve"/>
      <point x="548" y="454"/>
      <point x="548" y="454"/>
      <point x="548" y="453" type="qcurve"/>
      <point x="549" y="452"/>
      <point x="549" y="452"/>
      <point x="549" y="451" type="qcurve"/>
      <point x="550" y="450"/>
      <point x="550" y="451"/>
    </contour>
    <contour>
      <point x="835" y="404" type="qcurve"/>
      <point x="801" y="419"/>
      <point x="801" y="419"/>
      <point x="802" y="420" type="qcurve"/>
      <point x="802" y="420"/>
      <point x="802" y="422"/>
      <point x="802" y="422" type="qcurve"/>
      <point x="803" y="423"/>
      <point x="803" y="423"/>
      <point x="838" y="408" type="qcurve"/>
      <point x="873" y="394"/>
      <point x="873" y="394"/>
      <point x="872" y="392" type="qcurve" smooth="yes"/>
      <point x="872" y="392"/>
      <point x="872" y="392"/>
      <point x="872" y="391" type="qcurve"/>
      <point x="871" y="389"/>
      <point x="871" y="389"/>
    </contour>
    <contour>
      <point x="766" y="435" type="qcurve"/>
      <point x="733" y="449"/>
      <point x="733" y="449"/>
      <point x="734" y="450" type="qcurve"/>
      <point x="734" y="451"/>
      <point x="734" y="451"/>
      <point x="735" y="452" type="qcurve"/>
      <point x="735.0" y="453.0"/>
      <point x="735.0" y="453.0"/>
      <point x="768" y="438" type="qcurve"/>
      <point x="803" y="423"/>
      <point x="803" y="423"/>
      <point x="802" y="422" type="qcurve"/>
      <point x="802.0" y="422.0507462686567"/>
      <point x="802.0" y="419.9492537313433"/>
      <point x="802" y="420" type="qcurve"/>
      <point x="801" y="419"/>
      <point x="801" y="419"/>
    </contour>
    <component base="BaseCrown" xOffset="470"/>
    <component base="CWTermMidWaist" xScale="0.9167228629799683" xyScale="-0.3995237070435358" yxScale="0.3995237070435358" yScale="0.9167228629799683" xOffset="436" yOffset="199"/>
    <component base="CCWTermMidWaist" xScale="0.9184885575988073" xyScale="0.39544755601730947" yxScale="-0.39544755601730947" yScale="0.9184885575988073" xOffset="379" yOffset="4"/>
  </outline>
</glyph>
<glyph name="W" format="1">
  <advance width="1636"/>
  <unicode hex="0057"/>
  <outline>
    <contour>
      <point x="355" y="415" type="qcurve"/>
      <point x="321" y="403"/>
      <point x="321" y="403"/>
      <point x="321" y="403" type="qcurve"/>
      <point x="320" y="406"/>
      <point x="320" y="406"/>
      <point x="319" y="408" type="qcurve"/>
      <point x="319" y="408"/>
      <point x="319" y="408"/>
      <point x="352" y="419" type="qcurve"/>
      <point x="390" y="431"/>
      <point x="390" y="431"/>
      <point x="390" y="431" type="qcurve"/>
      <point x="391" y="429"/>
      <point x="391" y="429"/>
      <point x="392" y="427" type="qcurve"/>
      <point x="392" y="427"/>
      <point x="392" y="427"/>
    </contour>
    <contour>
      <point x="429" y="440" type="qcurve"/>
      <point x="392" y="427"/>
      <point x="392" y="427"/>
      <point x="392" y="427" type="qcurve"/>
      <point x="391" y="429"/>
      <point x="391" y="429"/>
      <point x="390" y="431" type="qcurve"/>
      <point x="390" y="431"/>
      <point x="390" y="431"/>
      <point x="428" y="444" type="qcurve"/>
      <point x="463" y="455"/>
      <point x="463" y="455"/>
      <point x="463" y="455" type="qcurve"/>
      <point x="464" y="453"/>
      <point x="464" y="453"/>
      <point x="465" y="451" type="qcurve"/>
      <point x="465" y="451"/>
      <point x="465" y="451"/>
    </contour>
    <contour>
      <point x="647" y="350" type="qcurve"/>
      <point x="612" y="362"/>
      <point x="612" y="362"/>
      <point x="612" y="362" type="qcurve"/>
      <point x="613" y="364"/>
      <point x="613" y="364"/>
      <point x="614" y="366" type="qcurve"/>
      <point x="614" y="366"/>
      <point x="614" y="366"/>
      <point x="650" y="354" type="qcurve"/>
      <point x="684" y="343"/>
      <point x="684" y="343"/>
      <point x="684" y="343" type="qcurve"/>
      <point x="683" y="340"/>
      <point x="683" y="340"/>
      <point x="682" y="338" type="qcurve"/>
      <point x="682" y="338"/>
      <point x="682" y="338"/>
    </contour>
    <contour>
      <point x="576" y="374" type="qcurve"/>
      <point x="542" y="385"/>
      <point x="542" y="385"/>
      <point x="542" y="385" type="qcurve"/>
      <point x="543" y="387"/>
      <point x="543" y="387"/>
      <point x="544" y="389" type="qcurve"/>
      <point x="544" y="389"/>
      <point x="544" y="389"/>
      <point x="577" y="378" type="qcurve"/>
      <point x="614" y="366"/>
      <point x="614" y="366"/>
      <point x="614" y="366" type="qcurve"/>
      <point x="613" y="364"/>
      <point x="613" y="364"/>
      <point x="612" y="362" type="qcurve"/>
      <point x="612" y="362"/>
      <point x="612" y="362"/>
    </contour>
    <contour>
      <point x="705" y="750" type="qcurve"/>
      <point x="669" y="762"/>
      <point x="669" y="762"/>
      <point x="669" y="762" type="qcurve"/>
      <point x="670" y="764"/>
      <point x="670" y="764"/>
      <point x="671" y="766" type="qcurve"/>
      <point x="671" y="766"/>
      <point x="671" y="766"/>
      <point x="706" y="754" type="qcurve"/>
      <point x="741" y="742"/>
      <point x="741" y="742"/>
      <point x="741" y="742" type="qcurve"/>
      <point x="740" y="739"/>
      <point x="740" y="739"/>
      <point x="739" y="738" type="qcurve"/>
      <point x="739" y="738"/>
      <point x="739" y="738"/>
    </contour>
    <contour>
      <point x="777" y="725" type="qcurve"/>
      <point x="739" y="738"/>
      <point x="739" y="738"/>
      <point x="739" y="738" type="qcurve"/>
      <point x="740" y="739"/>
      <point x="740" y="739"/>
      <point x="741" y="742" type="qcurve"/>
      <point x="741" y="742"/>
      <point x="741" y="742"/>
      <point x="780" y="729" type="qcurve"/>
      <point x="811" y="718"/>
      <point x="811" y="718"/>
      <point x="811" y="718" type="qcurve"/>
      <point x="810" y="716"/>
      <point x="810" y="716"/>
      <point x="809" y="714" type="qcurve"/>
      <point x="809" y="714"/>
      <point x="809" y="714"/>
    </contour>
    <contour>
      <point x="944" y="752" type="qcurve"/>
      <point x="904" y="738"/>
      <point x="904" y="738"/>
      <point x="904" y="738" type="qcurve"/>
      <point x="903" y="739"/>
      <point x="903" y="739"/>
      <point x="902" y="742" type="qcurve"/>
      <point x="902" y="742"/>
      <point x="902" y="742"/>
      <point x="943" y="756" type="qcurve"/>
      <point x="975" y="767"/>
      <point x="975" y="767"/>
      <point x="975" y="767" type="qcurve"/>
      <point x="976" y="765"/>
      <point x="976" y="765"/>
      <point x="977" y="763" type="qcurve"/>
      <point x="977" y="763"/>
      <point x="977" y="763"/>
    </contour>
    <contour>
      <point x="867" y="725" type="qcurve"/>
      <point x="834" y="713"/>
      <point x="834" y="713"/>
      <point x="834" y="713" type="qcurve"/>
      <point x="833" y="715"/>
      <point x="833" y="715"/>
      <point x="832" y="718" type="qcurve"/>
      <point x="832" y="718"/>
      <point x="832" y="718"/>
      <point x="865" y="729" type="qcurve"/>
      <point x="902" y="742"/>
      <point x="902" y="742"/>
      <point x="902" y="742" type="qcurve"/>
      <point x="903" y="739"/>
      <point x="903" y="739"/>
      <point x="904" y="738" type="qcurve"/>
      <point x="904" y="738"/>
      <point x="904" y="738"/>
    </contour>
    <contour>
      <point x="994" y="348" type="qcurve"/>
      <point x="960" y="336"/>
      <point x="960" y="336"/>
      <point x="960" y="336" type="qcurve"/>
      <point x="959" y="339"/>
      <point x="959" y="339"/>
      <point x="958" y="341" type="qcurve"/>
      <point x="958" y="341"/>
      <point x="958" y="341"/>
      <point x="991" y="352" type="qcurve"/>
      <point x="1029" y="365"/>
      <point x="1029" y="365"/>
      <point x="1029" y="365" type="qcurve"/>
      <point x="1030" y="363"/>
      <point x="1030" y="363"/>
      <point x="1031" y="361" type="qcurve"/>
      <point x="1031" y="361"/>
      <point x="1031" y="361"/>
    </contour>
    <contour>
      <point x="1070" y="374" type="qcurve"/>
      <point x="1031" y="361"/>
      <point x="1031" y="361"/>
      <point x="1031" y="361" type="qcurve"/>
      <point x="1030" y="363"/>
      <point x="1030" y="363"/>
      <point x="1029" y="365" type="qcurve"/>
      <point x="1029" y="365"/>
      <point x="1029" y="365"/>
      <point x="1069" y="378" type="qcurve"/>
      <point x="1102" y="389"/>
      <point x="1102" y="389"/>
      <point x="1102" y="389" type="qcurve"/>
      <point x="1103" y="387"/>
      <point x="1103" y="387"/>
      <point x="1104" y="385" type="qcurve"/>
      <point x="1104" y="385"/>
      <point x="1104" y="385"/>
    </contour>
    <contour>
      <point x="1286" y="414" type="qcurve"/>
      <point x="1249" y="427"/>
      <point x="1249" y="427"/>
      <point x="1249" y="427" type="qcurve"/>
      <point x="1250" y="429"/>
      <point x="1250" y="429"/>
      <point x="1251" y="431" type="qcurve"/>
      <point x="1251" y="431"/>
      <point x="1251" y="431"/>
      <point x="1289" y="418" type="qcurve"/>
      <point x="1320" y="408"/>
      <point x="1320" y="408"/>
      <point x="1320" y="408" type="qcurve"/>
      <point x="1319" y="406"/>
      <point x="1319" y="406"/>
      <point x="1318" y="403" type="qcurve"/>
      <point x="1318" y="403"/>
      <point x="1318" y="403"/>
    </contour>
    <contour>
      <point x="1212" y="439" type="qcurve"/>
      <point x="1178" y="450"/>
      <point x="1178" y="450"/>
      <point x="1178" y="450" type="qcurve"/>
      <point x="1179" y="452"/>
      <point x="1179" y="452"/>
      <point x="1180" y="454" type="qcurve"/>
      <point x="1180" y="454"/>
      <point x="1180" y="454"/>
      <point x="1213" y="443" type="qcurve"/>
      <point x="1251" y="431"/>
      <point x="1251" y="431"/>
      <point x="1251" y="431" type="qcurve"/>
      <point x="1250" y="429"/>
      <point x="1250" y="429"/>
      <point x="1249" y="427" type="qcurve"/>
      <point x="1249" y="427"/>
      <point x="1249" y="427"/>
    </contour>
    <component base="BaseCrown2" xOffset="878"/>
    <component base="BaseCrown2" xOffset="260"/>
    <component base="TopCrownW" xOffset="569" yOffset="755"/>
    <component base="CCWTermMidWaist" xScale="0.9472102777460288" xyScale="0.32061299058567627" yxScale="-0.32061299058567627" yScale="0.9472102777460288" xOffset="271" yOffset="-12"/>
    <component base="CWTermMidWaist" xScale="0.9472102777460287" xyScale="-0.3206129905856762" yxScale="0.3206129905856762" yScale="0.9472102777460287" xOffset="891" yOffset="144"/>
    <component base="CWWaist" xScale="0.9472102777460288" xyScale="-0.32061299058567627" yxScale="0.32061299058567627" yScale="0.9472102777460288" xOffset="230" yOffset="11"/>
    <component base="CCWWaist" xScale="0.9472102777460288" xyScale="0.32061299058567627" yxScale="-0.32061299058567627" yScale="0.9472102777460288" xOffset="936" yOffset="-149"/>
  </outline>
</glyph>
<glyph name="X" format="1">
  <advance width="1168"/>
  <unicode hex="0058"/>
  <outline>
    <contour>
      <point x="329" y="434" type="qcurve"/>
      <point x="302" y="453"/>
      <point x="302" y="453"/>
      <point x="302" y="453" type="qcurve"/>
      <point x="302" y="453"/>
      <point x="304" y="455"/>
      <point x="304" y="455" type="qcurve"/>
      <point x="304" y="455"/>
      <point x="305" y="457"/>
      <point x="305" y="457" type="qcurve"/>
      <point x="305" y="457"/>
      <point x="305" y="457"/>
      <point x="332" y="437" type="qcurve"/>
      <point x="364" y="414"/>
      <point x="364" y="414"/>
      <point x="364" y="414" type="qcurve"/>
      <point x="364" y="414"/>
      <point x="362" y="412"/>
      <point x="362" y="412" type="qcurve"/>
      <point x="362" y="412"/>
      <point x="361" y="411"/>
      <point x="361" y="411" type="qcurve"/>
      <point x="361" y="411"/>
      <point x="361" y="411"/>
    </contour>
    <contour>
      <point x="394" y="388" type="qcurve"/>
      <point x="361" y="411"/>
      <point x="361" y="411"/>
      <point x="361" y="411" type="qcurve"/>
      <point x="361" y="411"/>
      <point x="362" y="412"/>
      <point x="362" y="412" type="qcurve"/>
      <point x="362" y="412"/>
      <point x="364" y="414"/>
      <point x="364" y="414" type="qcurve"/>
      <point x="364" y="414"/>
      <point x="364" y="414"/>
      <point x="398" y="390" type="qcurve"/>
      <point x="425" y="371"/>
      <point x="425" y="371"/>
      <point x="425" y="371" type="qcurve"/>
      <point x="425" y="371"/>
      <point x="423" y="369"/>
      <point x="423" y="369" type="qcurve"/>
      <point x="423" y="369"/>
      <point x="422" y="367"/>
      <point x="422" y="367" type="qcurve"/>
      <point x="422" y="367"/>
      <point x="422" y="367"/>
    </contour>
    <contour>
      <point x="335" y="965" type="qcurve"/>
      <point x="305" y="943"/>
      <point x="305" y="943"/>
      <point x="305" y="943" type="qcurve"/>
      <point x="305" y="943"/>
      <point x="303" y="945"/>
      <point x="303" y="945" type="qcurve"/>
      <point x="303" y="945"/>
      <point x="302" y="947"/>
      <point x="302" y="947" type="qcurve"/>
      <point x="302" y="947"/>
      <point x="302" y="947"/>
      <point x="332" y="968" type="qcurve"/>
      <point x="365" y="992"/>
      <point x="365" y="992"/>
      <point x="365" y="992" type="qcurve"/>
      <point x="365" y="992"/>
      <point x="366" y="991"/>
      <point x="366" y="991" type="qcurve"/>
      <point x="366" y="991"/>
      <point x="368" y="989"/>
      <point x="368" y="989" type="qcurve"/>
      <point x="368" y="989"/>
      <point x="368" y="989"/>
    </contour>
    <contour>
      <point x="401" y="1012" type="qcurve"/>
      <point x="368" y="989"/>
      <point x="368" y="989"/>
      <point x="368" y="989" type="qcurve"/>
      <point x="368" y="989"/>
      <point x="366" y="991"/>
      <point x="366" y="991" type="qcurve"/>
      <point x="366" y="991"/>
      <point x="365" y="992"/>
      <point x="365" y="992" type="qcurve"/>
      <point x="365" y="992"/>
      <point x="365" y="992"/>
      <point x="398" y="1015" type="qcurve"/>
      <point x="428" y="1037"/>
      <point x="428" y="1037"/>
      <point x="428" y="1037" type="qcurve"/>
      <point x="428" y="1037"/>
      <point x="429" y="1036"/>
      <point x="429" y="1036" type="qcurve"/>
      <point x="429" y="1036"/>
      <point x="431" y="1033"/>
      <point x="431" y="1033" type="qcurve"/>
      <point x="431" y="1033"/>
      <point x="431" y="1033"/>
    </contour>
    <contour>
      <point x="771" y="387" type="qcurve"/>
      <point x="741" y="365"/>
      <point x="741" y="365"/>
      <point x="741" y="365" type="qcurve"/>
      <point x="741" y="365"/>
      <point x="740" y="366"/>
      <point x="740" y="366" type="qcurve"/>
      <point x="740" y="366"/>
      <point x="738" y="369"/>
      <point x="738" y="369" type="qcurve"/>
      <point x="738" y="369"/>
      <point x="738" y="369"/>
      <point x="768" y="390" type="qcurve"/>
      <point x="801" y="413"/>
      <point x="801" y="413"/>
      <point x="801" y="413" type="qcurve"/>
      <point x="801" y="413"/>
      <point x="803" y="411"/>
      <point x="803" y="411" type="qcurve"/>
      <point x="803" y="411"/>
      <point x="804" y="410"/>
      <point x="804" y="410" type="qcurve"/>
      <point x="804" y="410"/>
      <point x="804" y="410"/>
    </contour>
    <contour>
      <point x="756" y="1012" type="qcurve"/>
      <point x="729" y="1031"/>
      <point x="729" y="1031"/>
      <point x="729" y="1031" type="qcurve"/>
      <point x="729" y="1031"/>
      <point x="730" y="1033"/>
      <point x="730" y="1033" type="qcurve"/>
      <point x="730" y="1033"/>
      <point x="732" y="1035"/>
      <point x="732" y="1035" type="qcurve"/>
      <point x="732" y="1035"/>
      <point x="732" y="1035"/>
      <point x="759" y="1015" type="qcurve"/>
      <point x="792" y="992"/>
      <point x="792" y="992"/>
      <point x="792" y="992" type="qcurve"/>
      <point x="792" y="992"/>
      <point x="791" y="991"/>
      <point x="791" y="991" type="qcurve"/>
      <point x="791" y="991"/>
      <point x="789" y="989"/>
      <point x="789" y="989" type="qcurve"/>
      <point x="789" y="989"/>
      <point x="789" y="989"/>
    </contour>
    <contour>
      <point x="837" y="434" type="qcurve"/>
      <point x="804" y="410"/>
      <point x="804" y="410"/>
      <point x="804" y="410" type="qcurve"/>
      <point x="804" y="410"/>
      <point x="803" y="411"/>
      <point x="803" y="411" type="qcurve"/>
      <point x="803" y="411"/>
      <point x="801" y="413"/>
      <point x="801" y="413" type="qcurve"/>
      <point x="801" y="413"/>
      <point x="801" y="413"/>
      <point x="834" y="437" type="qcurve"/>
      <point x="865" y="460"/>
      <point x="865" y="460"/>
      <point x="865" y="460" type="qcurve"/>
      <point x="865" y="460"/>
      <point x="866" y="458"/>
      <point x="866" y="458" type="qcurve"/>
      <point x="866" y="458"/>
      <point x="868" y="456"/>
      <point x="868" y="456" type="qcurve"/>
      <point x="868" y="456"/>
      <point x="868" y="456"/>
    </contour>
    <contour>
      <point x="822" y="965" type="qcurve"/>
      <point x="789" y="989"/>
      <point x="789" y="989"/>
      <point x="789" y="989" type="qcurve"/>
      <point x="789" y="989"/>
      <point x="791" y="991"/>
      <point x="791" y="991" type="qcurve"/>
      <point x="791" y="991"/>
      <point x="792" y="992"/>
      <point x="792" y="992" type="qcurve"/>
      <point x="792" y="992"/>
      <point x="792" y="992"/>
      <point x="825" y="968" type="qcurve"/>
      <point x="852" y="949"/>
      <point x="852" y="949"/>
      <point x="852" y="949" type="qcurve"/>
      <point x="852" y="949"/>
      <point x="850" y="947"/>
      <point x="850" y="947" type="qcurve"/>
      <point x="850" y="947"/>
      <point x="849" y="945"/>
      <point x="849" y="945" type="qcurve"/>
      <point x="849" y="945"/>
      <point x="849" y="945"/>
    </contour>
    <contour>
      <point x="501" y="673" type="qcurve"/>
      <point x="477" y="705"/>
      <point x="477" y="705"/>
      <point x="501" y="737" type="qcurve"/>
      <point x="525" y="770"/>
      <point x="525" y="770"/>
      <point x="550" y="737" type="qcurve"/>
      <point x="572" y="707"/>
      <point x="572" y="707"/>
      <point x="547" y="674" type="qcurve"/>
      <point x="523" y="642"/>
      <point x="523" y="642"/>
    </contour>
    <contour>
      <point x="592" y="610" type="qcurve"/>
      <point x="569" y="579"/>
      <point x="569" y="579"/>
      <point x="546" y="611" type="qcurve"/>
      <point x="523" y="642"/>
      <point x="523" y="642"/>
      <point x="547" y="674" type="qcurve"/>
      <point x="572" y="707"/>
      <point x="572" y="707"/>
      <point x="595" y="674" type="qcurve"/>
      <point x="617" y="644"/>
      <point x="617" y="644"/>
    </contour>
    <contour>
      <point x="550" y="737" type="qcurve"/>
      <point x="525" y="770"/>
      <point x="525" y="770"/>
      <point x="549" y="802" type="qcurve"/>
      <point x="574" y="834"/>
      <point x="574" y="834"/>
      <point x="598" y="804" type="qcurve"/>
      <point x="621" y="773"/>
      <point x="621" y="773"/>
      <point x="596" y="738" type="qcurve"/>
      <point x="572" y="707"/>
      <point x="572" y="707"/>
    </contour>
    <contour>
      <point x="595" y="674" type="qcurve"/>
      <point x="572" y="707"/>
      <point x="572" y="707"/>
      <point x="596" y="738" type="qcurve"/>
      <point x="621" y="773"/>
      <point x="621" y="773"/>
      <point x="644" y="742" type="qcurve"/>
      <point x="668" y="711"/>
      <point x="668" y="711"/>
      <point x="641" y="676" type="qcurve"/>
      <point x="617" y="644"/>
      <point x="617" y="644"/>
    </contour>
    <component base="CWTerm" xScale="0.7986355100472928" xyScale="-0.6018150231520483" yxScale="0.6018150231520483" yScale="0.7986355100472928" xOffset="30" yOffset="397"/>
    <component base="CCWTerm" xScale="-0.7986355100472928" xyScale="-0.6018150231520483" yxScale="0.6018150231520483" yScale="-0.7986355100472928" xOffset="468" yOffset="1279"/>
    <component base="CCWTerm" xScale="0.7986355100472928" xyScale="0.6018150231520483" yxScale="-0.6018150231520483" yScale="0.7986355100472928" xOffset="726" yOffset="92"/>
    <component base="CWTerm" xScale="-0.7986355100472928" xyScale="0.6018150231520483" yxScale="-0.6018150231520483" yScale="-0.7986355100472928" xOffset="1097" yOffset="971"/>
  </outline>
</glyph>
<glyph name="Y" format="1">
  <advance width="1139"/>
  <unicode hex="0059"/>
  <outline>
    <contour>
      <point x="295" y="930" type="qcurve"/>
      <point x="264" y="910"/>
      <point x="264" y="910"/>
      <point x="264" y="910" type="qcurve"/>
      <point x="262" y="912"/>
      <point x="262" y="912"/>
      <point x="261" y="914" type="qcurve"/>
      <point x="261" y="914"/>
      <point x="261" y="914"/>
      <point x="292" y="933" type="qcurve"/>
      <point x="326" y="954"/>
      <point x="326" y="954"/>
      <point x="326" y="954" type="qcurve"/>
      <point x="327" y="953"/>
      <point x="327" y="953"/>
      <point x="329" y="951" type="qcurve"/>
      <point x="329" y="951"/>
      <point x="329" y="951"/>
    </contour>
    <contour>
      <point x="363" y="971" type="qcurve"/>
      <point x="329" y="951"/>
      <point x="329" y="951"/>
      <point x="329" y="951" type="qcurve"/>
      <point x="327" y="953"/>
      <point x="327" y="953"/>
      <point x="326" y="954" type="qcurve"/>
      <point x="326" y="954"/>
      <point x="326" y="954"/>
      <point x="361" y="975" type="qcurve"/>
      <point x="392" y="995"/>
      <point x="392" y="995"/>
      <point x="392" y="995" type="qcurve"/>
      <point x="393" y="993"/>
      <point x="393" y="993"/>
      <point x="394" y="991" type="qcurve"/>
      <point x="394" y="991"/>
      <point x="394" y="991"/>
    </contour>
    <contour>
      <point x="530" y="321" type="qcurve"/>
      <point x="489" y="321"/>
      <point x="489" y="321"/>
      <point x="489" y="321" type="qcurve"/>
      <point x="489" y="322"/>
      <point x="489" y="322"/>
      <point x="489" y="323" type="qcurve"/>
      <point x="489" y="323"/>
      <point x="489" y="323"/>
      <point x="530" y="323" type="qcurve"/>
      <point x="571" y="323"/>
      <point x="571" y="323"/>
      <point x="571" y="323" type="qcurve"/>
      <point x="571" y="322"/>
      <point x="571" y="322"/>
      <point x="571" y="321" type="qcurve"/>
      <point x="571" y="321"/>
      <point x="571" y="321"/>
    </contour>
    <contour>
      <point x="612" y="321" type="qcurve"/>
      <point x="571" y="321"/>
      <point x="571" y="321"/>
      <point x="571" y="321" type="qcurve"/>
      <point x="571" y="322"/>
      <point x="571" y="322"/>
      <point x="571" y="323" type="qcurve"/>
      <point x="571" y="323"/>
      <point x="571" y="323"/>
      <point x="612" y="323" type="qcurve"/>
      <point x="653" y="323"/>
      <point x="653" y="323"/>
      <point x="653" y="323" type="qcurve"/>
      <point x="653" y="322"/>
      <point x="653" y="322"/>
      <point x="653" y="321" type="qcurve"/>
      <point x="653" y="321"/>
      <point x="653" y="321"/>
    </contour>
    <contour>
      <point x="779" y="971" type="qcurve"/>
      <point x="752" y="988"/>
      <point x="752" y="988"/>
      <point x="752" y="988" type="qcurve"/>
      <point x="753" y="990"/>
      <point x="753" y="990"/>
      <point x="754" y="992" type="qcurve"/>
      <point x="754" y="992"/>
      <point x="754" y="992"/>
      <point x="781" y="975" type="qcurve"/>
      <point x="816" y="954"/>
      <point x="816" y="954"/>
      <point x="816" y="954" type="qcurve"/>
      <point x="815" y="953"/>
      <point x="815" y="953"/>
      <point x="813" y="951" type="qcurve"/>
      <point x="813" y="951"/>
      <point x="813" y="951"/>
    </contour>
    <contour>
      <point x="847" y="930" type="qcurve"/>
      <point x="813" y="951"/>
      <point x="813" y="951"/>
      <point x="813" y="951" type="qcurve"/>
      <point x="815" y="953"/>
      <point x="815" y="953"/>
      <point x="816" y="954" type="qcurve"/>
      <point x="816" y="954"/>
      <point x="816" y="954"/>
      <point x="850" y="933" type="qcurve"/>
      <point x="881" y="914"/>
      <point x="881" y="914"/>
      <point x="881" y="914" type="qcurve"/>
      <point x="880" y="912"/>
      <point x="880" y="912"/>
      <point x="878" y="910" type="qcurve"/>
      <point x="878" y="910"/>
      <point x="878" y="910"/>
    </contour>
    <contour>
      <point x="530" y="501" type="qcurve" smooth="yes"/>
      <point x="489" y="501"/>
      <point x="489" y="501"/>
      <point x="489" y="539" type="qcurve"/>
      <point x="489" y="577"/>
      <point x="489" y="577"/>
      <point x="530" y="577" type="qcurve" smooth="yes"/>
      <point x="571" y="577"/>
      <point x="571" y="577"/>
      <point x="571" y="539" type="qcurve"/>
      <point x="571" y="501"/>
      <point x="571" y="501"/>
    </contour>
    <contour>
      <point x="530" y="567" type="qcurve"/>
      <point x="489" y="567"/>
      <point x="489" y="567"/>
      <point x="465" y="605" type="qcurve"/>
      <point x="440" y="642"/>
      <point x="440" y="642"/>
      <point x="485" y="642" type="qcurve"/>
      <point x="525" y="642"/>
      <point x="525" y="642"/>
      <point x="547" y="606" type="qcurve"/>
      <point x="571" y="567"/>
      <point x="571" y="567"/>
    </contour>
    <contour>
      <point x="612" y="501" type="qcurve" smooth="yes"/>
      <point x="571" y="501"/>
      <point x="571" y="501"/>
      <point x="571" y="539" type="qcurve"/>
      <point x="571" y="577"/>
      <point x="571" y="577"/>
      <point x="612" y="577" type="qcurve" smooth="yes"/>
      <point x="653" y="577"/>
      <point x="653" y="577"/>
      <point x="653" y="539" type="qcurve"/>
      <point x="653" y="501"/>
      <point x="653" y="501"/>
    </contour>
    <contour>
      <point x="612" y="567" type="qcurve"/>
      <point x="571" y="567"/>
      <point x="571" y="567"/>
      <point x="595" y="606" type="qcurve"/>
      <point x="617" y="642"/>
      <point x="617" y="642"/>
      <point x="660" y="642" type="qcurve"/>
      <point x="702" y="642"/>
      <point x="702" y="642"/>
      <point x="677" y="605" type="qcurve"/>
      <point x="653" y="567"/>
      <point x="653" y="567"/>
    </contour>
    <contour>
      <point x="571" y="567" type="qcurve"/>
      <point x="525" y="642"/>
      <point x="525" y="642"/>
      <point x="549" y="669" type="qcurve"/>
      <point x="572" y="699"/>
      <point x="572" y="699"/>
      <point x="594" y="671" type="qcurve"/>
      <point x="617" y="642"/>
      <point x="617" y="642"/>
    </contour>
    <component base="BaseTerminal" xOffset="243"/>
    <component base="CWTerm" xScale="0.848048096156426" xyScale="-0.5299192642332049" yxScale="0.5299192642332049" yScale="0.848048096156426" xOffset="119" yOffset="307"/>
    <component base="CCWTerm" xScale="0.8475799498429241" xyScale="0.5306677195988715" yxScale="-0.5306677195988715" yScale="0.8475799498429241" xOffset="596" yOffset="43"/>
  </outline>
</glyph>
<glyph name="RightBotTerm" format="1">
  <advance width="656"/>
  <outline>
    <contour>
      <point x="287" y="0" type="qcurve" smooth="yes"/>
      <point x="246" y="0"/>
      <point x="246" y="0"/>
      <point x="246" y="38" type="qcurve"/>
      <point x="246" y="76"/>
      <point x="246" y="76"/>
      <point x="287" y="76" type="qcurve" smooth="yes"/>
      <point x="328" y="76"/>
      <point x="328" y="76"/>
      <point x="328" y="38" type="qcurve"/>
      <point x="328" y="0"/>
      <point x="328" y="0"/>
    </contour>
    <contour>
      <point x="287" y="76" type="qcurve" smooth="yes"/>
      <point x="246" y="76"/>
      <point x="246" y="76"/>
      <point x="246" y="114" type="qcurve"/>
      <point x="246" y="152"/>
      <point x="246" y="152"/>
      <point x="287" y="152" type="qcurve" smooth="yes"/>
      <point x="328" y="152"/>
      <point x="328" y="152"/>
      <point x="328" y="114" type="qcurve"/>
      <point x="328" y="76"/>
      <point x="328" y="76"/>
    </contour>
    <contour>
      <point x="369" y="0" type="qcurve" smooth="yes"/>
      <point x="328" y="0"/>
      <point x="328" y="0"/>
      <point x="328" y="38" type="qcurve"/>
      <point x="328" y="76"/>
      <point x="328" y="76"/>
      <point x="369" y="76" type="qcurve" smooth="yes"/>
      <point x="410" y="76"/>
      <point x="410" y="76"/>
      <point x="410" y="38" type="qcurve"/>
      <point x="410" y="0"/>
      <point x="410" y="0"/>
    </contour>
    <contour>
      <point x="369" y="76" type="qcurve" smooth="yes"/>
      <point x="328" y="76"/>
      <point x="328" y="76"/>
      <point x="328" y="114" type="qcurve"/>
      <point x="328" y="152"/>
      <point x="328" y="152"/>
      <point x="369" y="152" type="qcurve" smooth="yes"/>
      <point x="410" y="152"/>
      <point x="410" y="152"/>
      <point x="410" y="114" type="qcurve"/>
      <point x="410" y="76"/>
      <point x="410" y="76"/>
    </contour>
  </outline>
</glyph>
<glyph name="RoundDualySE" format="1">
  <advance width="653"/>
  <outline>
    <contour>
      <point x="445" y="178" type="qcurve"/>
      <point x="444" y="177"/>
      <point x="444" y="177"/>
      <point x="414" y="203" type="qcurve"/>
      <point x="386" y="228"/>
      <point x="386" y="228"/>
      <point x="387" y="229" type="qcurve"/>
      <point x="388" y="230"/>
      <point x="387" y="229"/>
      <point x="388" y="230" type="qcurve"/>
      <point x="388" y="230"/>
      <point x="388" y="230"/>
      <point x="389" y="231" type="qcurve"/>
      <point x="390" y="232"/>
      <point x="390" y="232"/>
      <point x="418" y="207" type="qcurve"/>
      <point x="448" y="181"/>
      <point x="448" y="181"/>
      <point x="447" y="180" type="qcurve"/>
      <point x="446" y="179"/>
      <point x="446" y="179"/>
      <point x="446" y="179" type="qcurve"/>
      <point x="445" y="178"/>
      <point x="446" y="179"/>
    </contour>
    <contour>
      <point x="387" y="229" type="qcurve"/>
      <point x="386" y="228"/>
      <point x="386" y="228"/>
      <point x="359" y="254" type="qcurve"/>
      <point x="332" y="281"/>
      <point x="332" y="281"/>
      <point x="333" y="282" type="qcurve"/>
      <point x="334" y="283"/>
      <point x="333" y="282"/>
      <point x="334" y="283" type="qcurve"/>
      <point x="334" y="283"/>
      <point x="334" y="283"/>
      <point x="335" y="284" type="qcurve"/>
      <point x="336" y="285"/>
      <point x="336" y="285"/>
      <point x="363" y="258" type="qcurve"/>
      <point x="390" y="232"/>
      <point x="390" y="232"/>
      <point x="389" y="231" type="qcurve"/>
      <point x="388" y="230"/>
      <point x="388" y="230"/>
      <point x="388" y="230" type="qcurve"/>
      <point x="387" y="229"/>
      <point x="388" y="230"/>
    </contour>
  </outline>
</glyph>
